<?xml version="1.0" encoding="UTF-8" standalone="no"?>
<!DOCTYPE svg  PUBLIC '-//W3C//DTD SVG 1.1//EN'  'http://www.w3.org/Graphics/SVG/1.1/DTD/svg11.dtd'>
<svg xmlns="http://www.w3.org/2000/svg">
<defs>
<font id="OpenSansHebrew-Regular" horiz-adv-x="1171">
<font-face underline-position="-103" font-weight="400" descent="-410" panose-1="0 0 5 0 0 0 0 0 0 0" units-per-em="2048" unicode-range="U+0020-2122" bbox="-160 -496 2363 1907" x-height="1096" underline-thickness="102" font-family="OpenSansHebrew" ascent="1638" cap-height="1462"/>
<missing-glyph horiz-adv-x="2048"/>
<glyph glyph-name=".notdef" horiz-adv-x="2048"/>
<glyph glyph-name=".null" horiz-adv-x="0"/>
<glyph glyph-name="nonmarkingreturn" horiz-adv-x="2048"/>
<glyph glyph-name="space" horiz-adv-x="532" unicode=" "/>
<glyph glyph-name="exclam" horiz-adv-x="547" unicode="!" d="M272 242q58 0 90 -35t31 -100q0 -65 -32 -101t-88 -35q-57 0 -89 33t-32 102q0 136 120 136zM326 403h-105l-51 1059h207z"/>
<glyph glyph-name="quotedbl" horiz-adv-x="821" unicode='&quot;' d="M647 934h-104l-41 528h186zM279 934h-105l-41 528h186z"/>
<glyph glyph-name="numbersign" horiz-adv-x="1323" unicode="#" d="M541 899l-66 -340h303l66 340h-303zM1270 1026v-127h-290l-65 -340h283v-129h-307l-84 -430h-137l84 430h-303l-82 -430h-136l80 430h-262v129h287l68 340h-277v127h299l82 436h139l-82 -436h305l84 436h134l-84 -436h264z"/>
<glyph glyph-name="dollar" d="M866 436q0 72 -44 116t-173 89v-389q217 30 217 184zM370 1173q-52 -47 -51 -119q0 -72 45 -119t156 -87v387q-98 -16 -150 -62zM649 1554v-180q183 -4 355 -74l-52 -131q-152 60 -303 70v-434q155 -49 233 -96t116 -111q38 -60 38 -149q0 -137 -102 -225t-285 -111v-232 h-129v223q-109 0 -216 18t-173 48v156q80 -36 191 -61q112 -23 198 -23v440q-204 64 -287 150t-83 220t101 218q102 84 269 102v182h129z" unicode="$"/>
<glyph glyph-name="percent" horiz-adv-x="1686" unicode="%" d="M1404 694q-40 82 -124 82t-120 -82q-38 -82 -38 -254q0 -174 38 -258t120 -83q84 -1 124 83t40 256q0 174 -40 256zM1059 782q75 115 219 115q144 -1 224 -119q79 -118 79 -342q-1 -224 -77 -340t-221 -116t-222 119t-77 343t75 340zM399 1364q-81 0 -119 -82t-38 -256 q0 -172 38 -256t119 -84q164 0 164 339t-164 339zM512 0h-147l811 1462h147zM399 1483q145 0 223 -119q78 -118 78 -342t-76 -340t-222 -117q-144 -1 -221 119t-77 342q0 457 295 457z"/>
<glyph glyph-name="ampersand" horiz-adv-x="1495" unicode="&amp;" d="M362 197q79 -68 207 -68q242 0 399 154l-436 424q-108 -66 -154 -111q-93 -88 -93 -209t77 -190zM752 1300q-52 48 -140 48t-143 -48t-55 -123t35 -136t124 -152q132 77 181 140t49 143q1 80 -51 128zM565 -20q-216 0 -334 106t-118 293q0 129 69 230q70 100 250 202 q-82 91 -114 141q-68 107 -68 215q0 150 98 234t266 84t262 -83q92 -83 92 -233q0 -107 -67 -199q-68 -89 -225 -182l407 -391q93 103 146 328h168q-67 -284 -205 -434l299 -291h-229l-185 178q-119 -106 -239 -152t-273 -46z"/>
<glyph glyph-name="quotesingle" horiz-adv-x="453" unicode="&apos;" d="M279 934h-105l-41 528h186z"/>
<glyph glyph-name="parenleft" horiz-adv-x="606" unicode="(" d="M330 1040q-74 -230 -74 -472t74 -472t213 -420h-160q-147 172 -224 398t-77 489t78 494t223 405h162q-141 -192 -215 -422z"/>
<glyph glyph-name="parenright" horiz-adv-x="606" unicode=")" d="M223 1462q149 -176 225 -408t76 -494t-77 -488t-224 -396h-160q139 187 213 418q74 232 74 474t-74 472t-215 422h162z"/>
<glyph glyph-name="asterisk" horiz-adv-x="1130" unicode="*" d="M614 1161l398 111l26 -182l-381 -31l248 -326l-172 -94l-176 362l-160 -362l-176 94l242 326l-377 31l29 182l391 -111l-43 395h194z"/>
<glyph glyph-name="plus" d="M653 791h412v-138h-412v-426h-139v426h-410v138h410v428h139v-428z" unicode="+"/>
<glyph glyph-name="comma" horiz-adv-x="502" unicode="," d="M350 238l15 -23q-25 -99 -75 -231t-102 -248h-125q29 111 59 257q31 140 46 245h182z"/>
<glyph glyph-name="hyphen" horiz-adv-x="659" unicode="-" d="M575 473h-491v152h491v-152z"/>
<glyph glyph-name="period" horiz-adv-x="545" unicode="." d="M182 207q30 35 88 35t90 -35t33 -101q-1 -66 -33 -100q-32 -35 -88 -35t-88 33q-32 32 -32 100t30 103z"/>
<glyph glyph-name="slash" horiz-adv-x="752" unicode="/" d="M186 0h-166l545 1462h166z"/>
<glyph glyph-name="zero" d="M824 1194q-74 147 -239 147q-165 -1 -240 -145t-75 -463t75 -465t240 -145q165 -1 239 147t75 463q0 315 -75 461zM221 1300q119 186 359 185t365 -193q124 -192 124 -566t-120 -560q-121 -186 -361 -186t-363 192t-123 566q0 376 119 562z" unicode="0"/>
<glyph glyph-name="one" d="M715 0h-162v1042q0 123 8 246q-21 -22 -41 -39t-244 -200l-88 114l387 299h140v-1462z" unicode="1"/>
<glyph glyph-name="two" d="M559 1483q207 0 323 -106q116 -104 116 -283q0 -138 -77 -274t-292 -345l-320 -313v-8h752v-154h-962v143l386 387q182 185 235 258t81 143t28 156q1 118 -71 186t-197 68q-91 0 -173 -30t-181 -109l-88 113q202 168 440 168z" unicode="2"/>
<glyph glyph-name="three" d="M557 1483q213 1 331 -97t118 -268q0 -138 -78 -228t-223 -120v-8q174 -21 260 -110t86 -238q0 -210 -145 -322t-412 -112q-238 0 -401 79v158q195 -96 407 -96q379 0 379 297q0 266 -418 266h-144v143h146q171 -1 271 75t100 210q0 107 -74 168t-199 61q-93 1 -179 -25 t-196 -97l-84 112q91 72 209 112t246 40z" unicode="3"/>
<glyph glyph-name="four" d="M754 487v485q0 153 10 324h-8q-48 -96 -90 -159l-457 -650h545zM913 487h217v-151h-217v-336h-159v336h-711v145l694 989h176v-983z" unicode="4"/>
<glyph glyph-name="five" d="M950 1309h-585l-37 -439q118 23 229 23q232 0 363 -115q133 -114 133 -313q-1 -227 -145 -356t-394 -129t-381 79v160q71 -46 173 -71t206 -25q177 -1 274 83t97 240q0 306 -375 306q-92 0 -254 -29l-86 55l55 684h727v-153z" unicode="5"/>
<glyph glyph-name="six" d="M604 780q-123 0 -221 -83t-96 -191q-1 -102 39 -191t114 -141t161 -53h7q143 0 221 90q78 89 78 247t-74 240t-217 82h-12zM647 911q197 -1 311 -119t113 -323q-1 -229 -125 -359t-343 -130t-353 170q-133 170 -133 475q0 858 663 858q115 0 178 -19v-143q-75 25 -176 25 q-237 0 -360 -148t-135 -459h12q109 172 348 172z" unicode="6"/>
<glyph glyph-name="seven" d="M93 1309v153h974v-133l-598 -1329h-184l606 1309h-798z" unicode="7"/>
<glyph glyph-name="eight" d="M335 554q-67 -78 -67 -191q0 -114 84 -181t233 -67q150 -1 233 69t83 193q0 97 -78 173t-272 146q-149 -64 -216 -142zM781 1288q-73 60 -199 60t-196 -60t-71 -156q0 -96 59 -163q59 -65 218 -131q144 62 203 130t59 165t-73 155zM152 1135q0 159 118 253t316 95 t315 -93t117 -257q0 -111 -68 -199t-213 -160q180 -86 252 -179q76 -92 76 -216q0 -182 -127 -291q-128 -108 -355 -108t-353 102t-126 291q0 251 306 391q-136 76 -197 166t-61 205z" unicode="8"/>
<glyph glyph-name="nine" d="M348 1250q-78 -92 -78 -248t74 -237t217 -81h12q127 0 223 82t97 184v11q0 101 -40 188q-41 89 -115 141t-162 51h-7q-143 1 -221 -91zM528 551q-194 -1 -308 115t-114 324q0 230 127 362t336 131h10q217 0 349 -172t133 -464v-9q0 -858 -664 -858q-115 0 -184 20v143 q81 -26 182 -26q241 1 363 149t133 455h-12q-54 -83 -145 -127t-206 -43z" unicode="9"/>
<glyph glyph-name="colon" horiz-adv-x="545" unicode=":" d="M182 207q30 35 88 35t90 -35t33 -101q-1 -66 -33 -100q-32 -35 -88 -35t-88 33q-32 32 -32 100t30 103zM270 1124q123 0 123 -136q-1 -64 -33 -99t-88 -35t-88 33t-32 101q0 136 118 136z"/>
<glyph glyph-name="semicolon" horiz-adv-x="545" unicode=";" d="M350 238l15 -23q-25 -99 -75 -231t-102 -248h-125q29 111 59 257q31 140 46 245h182zM266 1124q123 0 123 -136q-1 -64 -33 -99t-90 -35t-88 34t-31 100q0 136 119 136z"/>
<glyph glyph-name="less" d="M1065 1092l-782 -371l782 -328v-151l-961 422v98l961 479v-149z" unicode="&lt;"/>
<glyph glyph-name="equal" d="M1049 449h-930v137h930v-137zM1049 858h-930v136h930v-136z" unicode="="/>
<glyph glyph-name="greater" d="M1065 762v-98l-961 -422v151l783 326l-783 373v149z" unicode="&gt;"/>
<glyph glyph-name="question" horiz-adv-x="879" unicode="?" d="M360 242q58 0 90 -35t31 -100q0 -65 -32 -101t-88 -35q-57 0 -89 33t-32 102q0 136 120 136zM27 1384q189 99 387 99t305 -94q106 -94 106 -265q0 -133 -77 -234q-37 -48 -164 -159q-102 -85 -134 -143t-32 -152v-33h-129v54q0 117 36 192q35 75 134 160q137 116 172 174 t35 139q0 102 -66 158t-188 55q-82 -1 -156 -19t-170 -67z"/>
<glyph glyph-name="at" horiz-adv-x="1841" unicode="@" d="M963 938q-129 0 -203 -90t-74 -250q0 -254 195 -254q207 0 225 313l14 261q-74 20 -157 20zM885 -186q-364 0 -564 200t-200 557q0 260 107 463t305 314q197 112 453 112q217 0 383 -91q167 -89 259 -257t92 -383q0 -141 -44 -259t-124 -184t-176 -65q-96 0 -154 53 q-59 53 -69 132h-8q-39 -88 -115 -136t-176 -49q-150 0 -235 102q-84 103 -84 279q1 204 119 332t309 127q71 0 157 -13t152 -34l-25 -470v-22q0 -178 133 -178q91 0 148 108t57 279v9q-1 172 -75 308t-209 210t-306 73h-10h-12q-211 0 -375 -93q-164 -92 -251 -262 t-87 -388v-10q0 -305 161 -469t464 -164q208 0 436 86v-133q-192 -84 -436 -84z"/>
<glyph glyph-name="A" horiz-adv-x="1296" unicode="A" d="M885 618l-170 453q-34 88 -68 211q-22 -94 -63 -211l-172 -453h473zM1296 0h-176l-182 465h-586l-180 -465h-172l578 1468h143z"/>
<glyph glyph-name="B" horiz-adv-x="1327" unicode="B" d="M371 692v-547h305q180 0 268 69t88 209q0 141 -91 205t-279 64h-291zM371 1315v-479h280q179 0 259 56q78 56 78 185t-87 183t-280 55h-250zM201 1462h413q290 0 420 -87t131 -275q0 -131 -73 -215t-211 -109v-10q333 -57 333 -350q0 -196 -134 -306t-369 -110h-510v1462 z"/>
<glyph glyph-name="C" horiz-adv-x="1292" unicode="C" d="M798 -20q-324 0 -499 196t-175 557v10q0 218 84.5 387t244 261t366.5 92h9q229 0 402 -84l-72 -146q-167 78 -332 78q-241 0 -380.5 -160.5t-139.5 -443t134 -440.5q135 -156 384 -156q154 0 349 55v-149q-156 -57 -375 -57z"/>
<glyph glyph-name="D" horiz-adv-x="1493" unicode="D" d="M371 1315v-1168h207q303 0 456.5 149.5t153.5 439t-144 434.5t-426 145h-247zM201 1462h448q341 0 530 -189t189 -528q0 -362 -197 -553.5t-565 -191.5h-405v1462z"/>
<glyph glyph-name="E" horiz-adv-x="1139" unicode="E" d="M1016 1311h-645v-471h605v-150h-605v-538h645v-152h-815v1462h815v-151z"/>
<glyph glyph-name="F" horiz-adv-x="1057" unicode="F" d="M1016 1311h-645v-535h605v-151h-605v-625h-170v1462h815v-151z"/>
<glyph glyph-name="G" horiz-adv-x="1491" unicode="G" d="M1341 55q-233 -75 -514 -75q-332 0 -517 197q-185 199 -185 554q0 229 91 400t263.5 261.5t404 90.5t435.5 -86l-66 -150q-198 84 -381 84q-267 0 -417 -159t-150 -448t144.5 -442t424.5 -153q149 0 297 35v450h-327v152h497v-711z"/>
<glyph glyph-name="H" horiz-adv-x="1511" unicode="H" d="M1311 0h-170v688h-770v-688h-170v1462h170v-622h770v622h170v-1462z"/>
<glyph glyph-name="I" horiz-adv-x="571" unicode="I" d="M371 0h-170v1462h170v-1462z"/>
<glyph glyph-name="J" horiz-adv-x="547" unicode="J" d="M360 1462v-1448q0 -191 -96 -295t-276 -104q-94 0 -148 27v145q72 -20 148 -20q98 0 150 60t52 173v1462h170z"/>
<glyph glyph-name="K" horiz-adv-x="1257" unicode="K" d="M371 0h-170v1462h170v-725l663 725h201l-588 -635l610 -827h-200l-533 709l-153 -136v-573z"/>
<glyph glyph-name="L" horiz-adv-x="1063" unicode="L" d="M371 154h645v-154h-815v1462h170v-1308z"/>
<glyph glyph-name="M" horiz-adv-x="1849" unicode="M" d="M1649 0h-170v942q0 154 14 352h-8l-501 -1294h-136l-496 1296h-8q14 -160 14 -366v-930h-157v1462h256l463 -1206h8l467 1206h254v-1462z"/>
<glyph glyph-name="N" horiz-adv-x="1544" unicode="N" d="M1343 0h-194l-799 1227h-8q16 -209 16 -396v-831h-157v1462h192l797 -1222h8l-9 173q-5 104 -5 148.5v61.5v839h159v-1462z"/>
<glyph glyph-name="O" horiz-adv-x="1595" unicode="O" d="M1166 1180q-124 152 -366 153t-368 -153t-127 -448q1 -294 127 -449q126 -154 368 -154t366 153q124 154 124 450t-124 448zM301 1288q175 197 495 197t497 -200t177 -552q0 -353 -178 -553t-496 -200q-320 0 -496 197q-175 197 -175 555t176 556z"/>
<glyph glyph-name="P" horiz-adv-x="1233" unicode="P" d="M371 1315v-594h153q228 -1 328 73t100 226t-96 224q-96 71 -295 71h-190zM201 1462h379q548 0 548 -426q0 -222 -152 -342t-433 -119h-172v-575h-170v1462z"/>
<glyph glyph-name="Q" horiz-adv-x="1595" unicode="Q" d="M1166 1180q-124 152 -366 153t-368 -153t-127 -448q1 -294 127 -449q126 -154 368 -154t366 153q124 154 124 450t-124 448zM300 177q-175 197 -175 555t176 556q175 197 495 197t497 -200t177 -552q0 -281 -112 -467t-320 -252l348 -362h-247l-285 330l-55 -2 q-323 0 -499 197z"/>
<glyph glyph-name="R" horiz-adv-x="1266" unicode="R" d="M371 1313v-559h233q179 0 263.5 71t84.5 215t-85.5 208.5t-274.5 64.5h-221zM201 1462h401q268 0 397 -102.5t129 -310.5q0 -290 -294 -392l397 -657h-201l-354 608h-305v-608h-170v1462z"/>
<glyph glyph-name="S" horiz-adv-x="1124" unicode="S" d="M512 129q168 0 255 64t87 180q0 75 -30.5 124t-101 89.5t-218.5 93.5q-205 74 -292 174t-87 264.5t127 264.5t340 100t396 -80l-52 -148q-180 76 -352 76q-135 0 -211 -58t-76 -161q0 -75 28 -124t92.5 -88.5t205.5 -90.5q232 -84 317.5 -178t85.5 -242q0 -191 -140 -301 q-140 -108 -391 -108t-389 67v164q193 -82 406 -82z"/>
<glyph glyph-name="T" horiz-adv-x="1133" unicode="T" d="M1114 1311h-463v-1311h-170v1311h-463v151h1096v-151z"/>
<glyph glyph-name="U" horiz-adv-x="1491" unicode="U" d="M1305 1462v-946q1 -252 -151 -394t-415 -142t-409 144q-144 144 -144 396v942h170v-954q0 -184 100 -282t290 -97q189 0 289 99t100 282v952h170z"/>
<glyph glyph-name="V" horiz-adv-x="1219" unicode="V" d="M692 0h-168l-524 1462h180l336 -946q56 -158 92 -317q37 167 94 323l334 940h183z"/>
<glyph glyph-name="W" horiz-adv-x="1896" unicode="W" d="M1477 0h-168l-295 978q-24 72 -48 168t-26 116q-23 -134 -70 -290l-286 -972h-168l-389 1462h180l231 -903q47 -187 70 -344q26 179 80 358l262 889h180l275 -897q48 -154 81 -350q19 141 72 346l230 901h180z"/>
<glyph glyph-name="X" horiz-adv-x="1182" unicode="X" d="M686 770l488 -770h-194l-392 643l-400 -643h-180l486 764l-453 698h188l363 -579l366 579h181z"/>
<glyph glyph-name="Y" horiz-adv-x="1147" unicode="Y" d="M659 0h-172v559l-487 903h186l387 -731l390 731h184l-488 -895v-567z"/>
<glyph glyph-name="Z" horiz-adv-x="1169" unicode="Z" d="M1087 154v-154h-1005v133l776 1176h-752v153h959v-133l-776 -1175h798z"/>
<glyph glyph-name="bracketleft" horiz-adv-x="674" unicode="[" d="M623 1321h-289v-1503h289v-142h-457v1786h457v-141z"/>
<glyph glyph-name="backslash" horiz-adv-x="752" unicode="\" d="M733 0h-166l-544 1462h163z"/>
<glyph glyph-name="bracketright" horiz-adv-x="674" unicode="]" d="M508 -324h-457v142h289v1503h-289v141h457v-1786z"/>
<glyph glyph-name="asciicircum" horiz-adv-x="1110" unicode="^" d="M1059 551h-152l-372 745l-334 -745h-152l434 922h99z"/>
<glyph glyph-name="underscore" horiz-adv-x="918" unicode="_" d="M922 -315h-926v131h926v-131z"/>
<glyph glyph-name="grave" horiz-adv-x="1182" unicode="`" d="M393 1569h203q32 -69 89 -159t101 -144v-25h-110q-66 53 -155 149t-128 158v21z"/>
<glyph glyph-name="a" horiz-adv-x="1139" unicode="a" d="M268 301q0 -89 54 -137t153 -47q155 -1 243 85t89 238v99l-166 -7q-197 -8 -285 -62t-88 -169zM217 1020q172 94 370 94q197 0 291 -88t94 -278v-748h-122l-33 156h-8q-81 -104 -163 -140t-204 -36q-163 0 -256 84t-93 239q0 331 532 348l186 6v68q1 131 -55 191t-187 60 t-301 -83z"/>
<glyph glyph-name="b" horiz-adv-x="1255" unicode="b" d="M893 870q-75 104 -238 104t-238 -97t-75 -327t77 -332q77 -99 247 -99q150 0 226 110t76 323q0 214 -75 318zM342 1556v-378q0 -121 -8 -228h8q116 164 338 164t341 -148q120 -148 120 -418q-1 -270 -121 -419t-340 -149t-338 161h-12l-35 -141h-119v1556h166z"/>
<glyph glyph-name="c" horiz-adv-x="974" unicode="c" d="M614 -20q-238 0 -369 146q-130 146 -130 418t132 422q133 150 378 150q76 0 154.5 -16.5t127.5 -40.5l-51 -141q-56 22 -118 36t-117 14q-334 0 -334 -425q0 -203 82 -310.5t241 -107.5q136 0 281 59v-147q-112 -57 -277 -57z"/>
<glyph glyph-name="d" horiz-adv-x="1255" unicode="d" d="M913 510v35q0 233 -78 332q-75 99 -247 99q-146 0 -223.5 -112.5t-77.5 -321.5t77 -316t226 -107q170 0 246.5 92.5t76.5 298.5zM1079 0h-135l-22 147h-9q-116 -167 -337.5 -167t-341.5 147q-119 148 -119 418.5t120 420.5t338.5 150t337.5 -162h13l-7 79l-4 77v446h166 v-1556z"/>
<glyph glyph-name="e" horiz-adv-x="1149" unicode="e" d="M864 653q0 156 -70 239.5t-200.5 83.5t-209.5 -85t-93 -238h573zM639 -20q-243 0 -384 148q-140 149 -140 413t130.5 419.5t344 155.5t332.5 -137q120 -133 120 -356v-105h-755q5 -192 97 -292.5t265 -100.5t345 74v-148q-87 -38 -166.5 -54.5t-188.5 -16.5z"/>
<glyph glyph-name="f" horiz-adv-x="694" unicode="f" d="M225 1163q0 404 353 404q85 0 204 -35l-43 -133q-94 31 -164 31q-94 0 -139 -63t-45 -200v-71h279v-129h-279v-967h-166v967h-196v75l196 60v61z"/>
<glyph glyph-name="g" horiz-adv-x="1122" unicode="g" d="M637 25h-199q-114 0 -176 -54t-63 -149q0 -187 290 -187q205 0 307 61t103 171q0 90 -55 124t-207 34zM532 994q-118 0 -180 -63t-63 -181q1 -118 65 -178t181 -60q243 0 243 236q0 246 -246 246zM496 174h194q178 0 274 -75t95 -218q0 -181 -146 -277t-426 -96 q-215 0 -331 80t-117 226q1 100 65 173t179 99q-43 20 -71 60t-28 96t32 100q32 46 101 88q-84 34 -139 119q-53 85 -53 192q0 179 108 277t306 98q84 0 155 -20h379v-106l-203 -23q72 -91 72 -219q0 -161 -110 -257t-302 -96q-46 0 -92 8q-106 -55 -106 -141q0 -46 38 -67 t126 -21z"/>
<glyph glyph-name="h" horiz-adv-x="1257" unicode="h" d="M342 1556v-471q0 -83 -8 -141h10q49 80 140 125t206 45q203 0 302.5 -97t99.5 -302v-715h-166v709q0 135 -61.5 200t-190.5 65q-175 0 -253.5 -93.5t-78.5 -307.5v-573h-166v1556h166z"/>
<glyph glyph-name="i" horiz-adv-x="518" unicode="i" d="M342 0h-166v1096h166v-1096zM189 1476q27 28 70 27q43 0 71 -28t28 -82q0 -55 -28 -83t-71 -28t-70 28t-27 84q0 54 27 82z"/>
<glyph glyph-name="j" horiz-adv-x="518" unicode="j" d="M342 1096v-1264q0 -324 -299 -324q-97 0 -154 25v135q71 -20 143 -20q144 0 144 172v1276h166zM189 1476q27 28 70 27q43 0 71 -28t28 -82q0 -55 -28 -83t-71 -28t-70 28t-27 84q0 54 27 82z"/>
<glyph glyph-name="k" horiz-adv-x="1075" unicode="k" d="M340 1556v-825q0 -47 -8 -170h8q46 64 131 160l354 375h197l-444 -467l475 -629h-201l-387 518l-125 -108v-410h-164v1556h164z"/>
<glyph glyph-name="l" horiz-adv-x="518" unicode="l" d="M342 0h-166v1556h166v-1556z"/>
<glyph glyph-name="m" horiz-adv-x="1905" unicode="m" d="M1368 1116q188 0 280 -97t91 -304v-715h-166v713q-1 133 -57 197t-173 64q-155 0 -229 -88t-74 -274v-612h-166v713q0 133 -56 197t-175 64q-157 0 -229 -93t-72 -306v-575h-166v1096h135l27 -150h8q46 80 132 125t192 45q256 0 336 -186h8q48 86 142 136t212 50z"/>
<glyph glyph-name="n" horiz-adv-x="1257" unicode="n" d="M694 1116q200 0 299 -97t99 -304v-715h-166v709q0 135 -61.5 200t-190.5 65q-173 0 -252.5 -93t-79.5 -306v-575h-166v1096h135l27 -150h8q51 81 142.5 125.5t205.5 44.5z"/>
<glyph glyph-name="o" horiz-adv-x="1237" unicode="o" d="M615 974q-329 0 -329 -425q0 -210 84 -320t248 -110q162 -1 246 109t85 320q-1 210 -85 318t-249 108zM114 549q0 267 134 417t368 150t368 -153q137 -152 137 -417q0 -266 -135 -416t-373 -150h-8q-217 0 -354 154t-137 401v14z"/>
<glyph glyph-name="p" horiz-adv-x="1255" unicode="p" d="M342 549q0 -230 77 -331q77 -99 247 -99q142 1 222 115t80 318t-80 312q-80 110 -226 110q-169 0 -244 -93t-76 -295v-37zM342 946q120 170 340 170t340 -149q119 -149 119 -419q-1 -270 -121 -419t-340 -149t-338 161h-12q12 -96 12 -182v-451h-166v1588h135l23 -150h8z "/>
<glyph glyph-name="q" horiz-adv-x="1255" unicode="q" d="M913 545q0 231 -78 331t-247 100q-146 0 -224 -112t-77 -321q0 -208 77 -316t226 -108q166 1 242 89t81 300v37zM565 -20q-212 0 -331 149t-119 417t120 419t339 151t341 -170h9l24 150h131v-1588h-166v469q0 95 11 170h-13q-116 -167 -346 -167z"/>
<glyph glyph-name="r" horiz-adv-x="836" unicode="r" d="M676 1116q72 0 131 -12l-23 -154q-68 15 -120 15q-134 0 -228 -107.5t-94 -269.5v-588h-166v1096h137l19 -203h8q61 108 147.5 165.5t188.5 57.5z"/>
<glyph glyph-name="s" horiz-adv-x="976" unicode="s" d="M453 117q270 0 270 168q0 64 -55.5 109.5t-216.5 107.5q-154 57 -218.5 100t-95.5 96t-31 129q0 133 109 211t292 78t353 -72l-59 -135q-164 67 -289.5 67t-186.5 -36t-61 -102q0 -44 22 -75t72 -59t193 -81q195 -71 263.5 -143t68.5 -181q0 -153 -114.5 -236t-326 -83 t-333.5 69v154q170 -86 344 -86z"/>
<glyph glyph-name="t" horiz-adv-x="723" unicode="t" d="M354 1096h318v-129h-318v-645q0 -98 46.5 -151.5t127.5 -53.5t152 20v-128q-24 -12 -78 -20.5t-96 -8.5q-318 0 -318 335v652h-157v80l157 69l70 234h96v-254z"/>
<glyph glyph-name="u" horiz-adv-x="1257" unicode="u" d="M1081 0h-137l-24 147h-9q-51 -81 -141 -124t-207 -43q-203 0 -301 96t-98 303v717h168v-711q0 -135 62 -201t190 -65q172 1 252 95t79 306v576h166v-1096z"/>
<glyph glyph-name="v" horiz-adv-x="1026" unicode="v" d="M610 0h-194l-416 1096h178l236 -650q82 -234 94 -296h8q10 52 67 214t265 732h178z"/>
<glyph glyph-name="w" horiz-adv-x="1593" unicode="w" d="M1268 0h-197l-201 643q-14 43 -71 268h-8q-42 -181 -70 -270l-207 -641h-192l-299 1096h174q120 -462 161 -629q57 -222 64 -291h8q9 50 36 148t42 143l201 629h180l196 -629q58 -179 76 -289h8q5 36 19 98t211 820h172z"/>
<glyph glyph-name="x" horiz-adv-x="1073" unicode="x" d="M631 561l401 -561h-188l-307 444l-310 -444h-188l401 561l-381 535h189l289 -420l288 420h187z"/>
<glyph glyph-name="y" horiz-adv-x="1032" unicode="y" d="M166 -492q-74 0 -150 17v133q56 -12 123 -12q171 0 244 192l61 156l-442 1102h178l240 -625q77 -208 98 -309h8q14 50 50 160t276 774h178l-471 -1248q-72 -187 -164 -262q-93 -78 -229 -78z"/>
<glyph glyph-name="z" horiz-adv-x="958" unicode="z" d="M877 129v-129h-795v113l598 854h-561v129h743v-129l-590 -838h605z"/>
<glyph glyph-name="braceleft" horiz-adv-x="776" unicode="{" d="M705 1462v-139q-230 -6 -230 -199v-295q0 -215 -223 -254v-12q223 -39 223 -254v-297q0 -100 57 -147t173 -49v-140q-190 2 -294 87t-104 239v303q1 101 -61 147t-185 46v141q129 1 187 47t59 143v306q0 155 108 241q109 86 290 86z"/>
<glyph glyph-name="bar" horiz-adv-x="1128" unicode="|" d="M635 -496h-141v2052h141v-2052z"/>
<glyph glyph-name="braceright" horiz-adv-x="776" unicode="}" d="M72 1462q184 0 290 -87t105 -240v-306q0 -97 59 -143t189 -47v-141q-125 0 -187 -46t-61 -147v-303q0 -152 -103 -238t-292 -88v140q114 2 170 49t57 147v297q0 113 54 173t169 81v12q-223 39 -223 254v295q0 193 -227 199v139z"/>
<glyph glyph-name="asciitilde" d="M1065 702q-105 -110 -237 -110t-277 65q-77 33 -121 45t-94 11q-50 0 -114 -33q-63 -33 -118 -88v151q100 109 244 109q66 0 122 -14t167 -60q112 -47 192 -47q55 1 119 33t117 88v-150z" unicode="~"/>
<glyph glyph-name="nonbreakingspace" horiz-adv-x="532" unicode=" "/>
<glyph glyph-name="exclamdown" horiz-adv-x="547" unicode="¡" d="M375 -373h-207l51 1057h105zM184 1082q32 36 86 36q56 0 90 -34t33 -102q0 -134 -121 -134q-60 0 -90 35t-30 99t32 100z"/>
<glyph glyph-name="cent" d="M721 1483v-164q156 -6 265 -59l-48 -140q-134 51 -242 51q-170 0 -252 -105t-82 -320q0 -214 80 -316t246 -102q140 0 282 59v-147q-103 -54 -251 -60v-200h-133v206q-204 32 -300 168t-96 387q0 509 396 570v172h135z" unicode="¢"/>
<glyph glyph-name="sterling" d="M268 782v316q0 178 112 280t302 103q190 0 360 -84l-62 -133q-154 77 -288 77t-194 -63q-62 -63 -62 -201v-295h422v-127h-422v-221q0 -100 -33 -168t-106 -112h795v-154h-1029v141q205 46 205 291v223h-198v127h198z" unicode="£"/>
<glyph glyph-name="yen" d="M982 692v-127h-316v-170h316v-127h-316v-268h-164v268h-316v127h316v170h-316v127h256l-411 770h178l375 -727l379 727h174l-416 -770h261z" unicode="¥"/>
<glyph glyph-name="brokenbar" horiz-adv-x="1128" unicode="¦" d="M635 -496h-141v777h141v-777zM635 780h-141v776h141v-776z"/>
<glyph glyph-name="section" horiz-adv-x="1057" unicode="§" d="M770 758q0 83 -72 138t-260 114q-68 -21 -111 -69q-42 -49 -42 -112q1 -77 65 -129t234 -114l49 -19q137 80 137 191zM477 123q135 0 205 38t70 109q0 45 -23 74q-23 28 -79 58t-183 78q-128 48 -195 92t-100 102t-33 139q0 83 43 151t121 105q-78 43 -118 99t-40 137 q1 122 105 191t299 69q94 0 172 -14t178 -54l-53 -131q-94 38 -165 52t-144 14q-232 0 -232 -123q1 -59 61 -101t231 -104t246 -138t75 -182q0 -90 -40 -160t-116 -112q153 -80 153 -224q-1 -144 -117 -220t-332 -76t-343 65v148q78 -38 174 -60t180 -22z"/>
<glyph glyph-name="dieresis" horiz-adv-x="1182" unicode="¨" d="M780 1491q40 -1 66 -25t26 -72t-26 -74t-66 -26q-38 0 -64 26t-26 74t25 72t65 25zM334 1466q26 24 66 25q40 -1 66 -25t26 -72t-26 -74t-66 -26t-66 26t-25 74q0 48 25 72z"/>
<glyph glyph-name="copyright" horiz-adv-x="1704" unicode="©" d="M883 274q-195 0 -299 121t-103 332q0 211 110 336q111 123 302 123q128 0 246 -60l-58 -118q-108 51 -188 51q-124 -1 -192 -87t-68 -248q-1 -162 63 -242q64 -81 195 -81q86 0 211 45v-124q-114 -48 -219 -48zM1176 1290q-148 88 -323 88t-323 -87t-238 -236 q-87 -149 -87 -323t87 -324t237 -238q153 -86 325 -86t322 88t235 234q88 148 88 324t-87 324t-236 236zM470 83q-175 103 -273 277t-98 370q0 198 101 375t276 277q176 100 376 101q200 -1 376 -101t276 -276t100 -374t-98 -372t-272 -277t-382 -103q-207 0 -382 103z"/>
<glyph glyph-name="guillemotleft" horiz-adv-x="1018" unicode="«" d="M938 889l-287 -350l287 -351l-117 -71l-344 407v27l344 407zM543 889l-289 -350l289 -351l-119 -71l-342 407v27l342 407z"/>
<glyph glyph-name="logicalnot" d="M1065 264h-137v389h-824v138h961v-527z" unicode="¬"/>
<glyph glyph-name="uni00AD" horiz-adv-x="659" unicode="­" d="M575 473h-491v152h491v-152z"/>
<glyph glyph-name="registered" horiz-adv-x="1704" unicode="®" d="M723 1049v-287h108q79 0 128 41q49 43 49 111t-42 102q-42 33 -137 33h-106zM575 1176h261q165 0 243 -64t78 -199q-1 -81 -43 -142t-120 -91l239 -395h-168l-207 354h-135v-354h-148v891zM1176 1290q-148 88 -323 88t-323 -87t-238 -236q-87 -149 -87 -323t87 -324 t237 -238q153 -86 325 -86t322 88t235 234q88 148 88 324t-87 324t-236 236zM470 83q-175 103 -273 277t-98 370q0 198 101 375t276 277q176 100 376 101q200 -1 376 -101t276 -276t100 -374t-98 -372t-272 -277t-382 -103q-207 0 -382 103z"/>
<glyph glyph-name="overscore" horiz-adv-x="1024" unicode="¯" d="M1030 1556h-1036v127h1036v-127z"/>
<glyph glyph-name="degree" horiz-adv-x="877" unicode="°" d="M440 1368q-82 0 -140 -57t-58 -139t58 -140t139 -58t139 57t57 141q0 84 -57 139q-56 57 -138 57zM438 1483q130 -1 221 -91t91 -221q0 -83 -41 -155t-114 -114t-157 -42q-130 0 -221 90q-90 90 -90 220t90 222q91 91 221 91z"/>
<glyph glyph-name="plusminus" d="M1065 0h-961v139h961v-139zM653 791h412v-138h-412v-426h-139v426h-410v138h410v428h139v-428z" unicode="±"/>
<glyph glyph-name="twosuperior" horiz-adv-x="711" unicode="²" d="M344 1481q131 0 205 -65t74 -177q0 -79 -44 -155t-192 -214l-174 -165h440v-119h-604v104l236 230q85 80 128 132t59 90t17 98q0 60 -39 94q-39 36 -98 36t-107 -19t-118 -69l-66 88q131 111 283 111z"/>
<glyph glyph-name="threesuperior" horiz-adv-x="711" unicode="³" d="M334 1481q137 1 215 -59t78 -167q1 -78 -39 -130t-111 -76q176 -47 176 -209q0 -129 -92 -200q-91 -71 -251 -71t-277 56v123q148 -68 270 -68q211 0 211 162q0 144 -231 144h-117v108h119q101 0 151 38t51 104q0 66 -40 100t-107 34q-110 0 -234 -78l-69 90 q139 99 297 99z"/>
<glyph glyph-name="acute" horiz-adv-x="1182" unicode="´" d="M786 1569v-21q-45 -66 -132 -161t-150 -146h-111v25q47 62 103 150t88 153h202z"/>
<glyph glyph-name="paragraph" horiz-adv-x="1341" unicode="¶" d="M1120 -260h-114v1712h-213v-1712h-115v819q-62 -18 -146 -18q-215 0 -317 124t-102 381q-1 258 109 384t341 126h557v-1816z"/>
<glyph glyph-name="periodcentered" horiz-adv-x="545" unicode="·" d="M182 824q30 34 88 34t90 -35t33 -100q-1 -65 -33 -100t-88 -35t-88 33t-32 101t30 102z"/>
<glyph glyph-name="cedilla" horiz-adv-x="465" unicode="¸" d="M436 -289q0 -99 -77 -151t-226 -52q-51 0 -96 9v106q48 -8 117 -8t108 21q39 20 39 68t-39 75q-43 27 -149 43l88 178h110l-55 -115q180 -39 180 -174z"/>
<glyph glyph-name="onesuperior" horiz-adv-x="711" unicode="¹" d="M481 586h-133v579q0 91 6 181q-24 -24 -50 -46t-161 -116l-67 96l262 182h143v-876z"/>
<glyph glyph-name="guillemotright" horiz-adv-x="1018" unicode="»" d="M936 551v-27l-344 -407l-117 71l287 351l-287 350l117 69zM541 551v-27l-344 -407l-117 71l287 351l-287 350l117 69z"/>
<glyph glyph-name="onequarter" horiz-adv-x="1597" unicode="¼" d="M1219 320v195q0 134 6 209q-9 -23 -51 -85t-49 -73l-168 -246h262zM1364 320h125v-117h-125v-203h-145v203h-402v101l408 579h139v-563zM395 0h-143l903 1462h143zM480 586h-133v579q0 91 6 181q-25 -24 -51 -46t-160 -116l-67 96l262 182h143v-876z"/>
<glyph glyph-name="onehalf" horiz-adv-x="1597" unicode="½" d="M1190 896q131 0 205 -65t74 -177q0 -80 -44 -155t-192 -214l-174 -165h440v-120h-604v105l236 230q91 89 131 136t56 85t17 98q0 60 -39 96t-98 35q-58 0 -106 -19t-120 -69l-65 88q129 111 283 111zM327 0h-143l903 1462h143zM451 586h-133v579q0 91 6 181 q-24 -24 -50 -46t-161 -116l-67 96l262 182h143v-876z"/>
<glyph glyph-name="threequarters" horiz-adv-x="1597" unicode="¾" d="M1299 320v195q0 134 6 209q-9 -23 -51 -85t-49 -73l-168 -246h262zM1444 320h125v-117h-125v-203h-145v203h-402v101l408 579h139v-563zM487 0h-143l903 1462h143zM327 1481q137 1 215 -59t78 -167q0 -78 -40 -130t-110 -76q176 -47 176 -209q0 -129 -92 -200t-252 -71 t-276 56v123q148 -68 270 -68q211 0 211 162q0 144 -231 144h-117v108h119q102 0 152 38t50 104t-40 100t-107 34q-109 0 -235 -78l-68 90q139 99 297 99z"/>
<glyph glyph-name="questiondown" horiz-adv-x="879" unicode="¿" d="M590 684v-51q0 -122 -38 -197q-38 -76 -146 -168q-106 -92 -138 -131t-44 -77q-13 -38 -13 -95q1 -101 67 -157t187 -56q81 0 157 20t171 66l59 -135q-196 -96 -390 -96t-303 93q-108 93 -108 263q0 97 32 159q19 36 33 60t52 60q42 41 135 123q93 83 125 139t31 149v31 h131zM430 1082q34 36 88 36t88 -34t33 -102q0 -134 -121 -134q-59 0 -90 34t-31 100q0 64 33 100z"/>
<glyph glyph-name="Agrave" horiz-adv-x="1296" unicode="À" d="M885 618l-170 453q-34 88 -68 211q-22 -94 -63 -211l-172 -453h473zM1296 0h-176l-182 465h-586l-180 -465h-172l578 1468h143zM331 1907h203q32 -69 89 -159t101 -144v-25h-110q-66 53 -155 149t-128 158v21z"/>
<glyph glyph-name="Aacute" horiz-adv-x="1296" unicode="Á" d="M885 618l-170 453q-34 88 -68 211q-22 -94 -63 -211l-172 -453h473zM1296 0h-176l-182 465h-586l-180 -465h-172l578 1468h143zM919 1907v-21q-45 -66 -132 -161t-150 -146h-111v25q48 62 104 150t87 153h202z"/>
<glyph glyph-name="Acircumflex" horiz-adv-x="1296" unicode="Â" d="M885 618l-170 453q-34 88 -68 211q-22 -94 -63 -211l-172 -453h473zM1296 0h-176l-182 465h-586l-180 -465h-172l578 1468h143zM977 1579h-119q-86 54 -221 186q-137 -133 -219 -186h-115v23q129 139 180 203t72 102h166q24 -45 77 -108q46 -58 179 -197v-23z"/>
<glyph glyph-name="Atilde" horiz-adv-x="1296" unicode="Ã" d="M885 618l-170 453q-34 88 -68 211q-22 -94 -63 -211l-172 -453h473zM1296 0h-176l-182 465h-586l-180 -465h-172l578 1468h143zM792 1581q-60 0 -164 60q-38 22 -54 31q-54 28 -98 28t-70 -29t-40 -92h-98q12 121 70 189t149 69q69 0 171 -59q15 -10 25 -15q11 -5 21 -11 t14 -8l14 -7t16 -7t13 -5q8 -3 14 -4q18 -3 26 -3q47 0 71 28t41 93h99q-13 -122 -70 -190t-150 -68z"/>
<glyph glyph-name="Adieresis" horiz-adv-x="1296" unicode="Ä" d="M885 618l-170 453q-34 88 -68 211q-22 -94 -63 -211l-172 -453h473zM1296 0h-176l-182 465h-586l-180 -465h-172l578 1468h143zM835 1829q40 -1 66 -25t26 -72q-1 -48 -27 -74t-65 -26t-65 26t-25 74q0 48 25 72t65 25zM389 1804q25 24 65 25q40 -1 67 -25q26 -24 26 -72 t-26 -74t-66 -26q-39 0 -65 26t-26 74t25 72z"/>
<glyph glyph-name="Aring" horiz-adv-x="1296" unicode="Å" d="M885 618l-170 453q-34 88 -68 211q-22 -94 -63 -211l-172 -453h473zM645 1702q-53 0 -85 -31t-32 -87t30 -86t85 -30t87 31t32 86t-32 86t-85 31zM424 1585q0 97 60 155t162 58q100 0 162 -59t62 -152q0 -69 -32 -120t-87 -76l545 -1391h-176l-182 465h-586l-180 -465 h-172l546 1388q-58 22 -90 74t-32 123z"/>
<glyph glyph-name="AE" horiz-adv-x="1788" unicode="Æ" d="M915 618v693h-118l-328 -693h446zM1665 1311h-580v-471h541v-150h-541v-538h580v-152h-750v465h-514l-227 -465h-176l698 1462h969v-151z"/>
<glyph glyph-name="Ccedilla" horiz-adv-x="1292" unicode="Ç" d="M827 1331q-241 -1 -381 -161t-139 -444t135 -439q134 -156 383 -156q154 0 349 55v-149q-145 -55 -359 -57l-45 -95q180 -39 180 -174q0 -99 -77 -151t-226 -52q-51 0 -96 9v106q48 -8 117 -8t108 21q39 20 39 68t-39 75q-43 27 -149 43l80 162q-280 28 -431 222 t-151 527q0 226 85 396t244 262q160 92 382 92t395 -84l-72 -146q-167 78 -332 78z"/>
<glyph glyph-name="Egrave" horiz-adv-x="1139" unicode="È" d="M1016 1311h-645v-471h606v-150h-606v-538h645v-152h-815v1462h815v-151zM320 1907h203q32 -69 89 -159t101 -144v-25h-110q-66 53 -155 149t-128 158v21z"/>
<glyph glyph-name="Eacute" horiz-adv-x="1139" unicode="É" d="M1016 1311h-645v-471h606v-150h-606v-538h645v-152h-815v1462h815v-151zM849 1907v-21q-45 -66 -132 -161t-150 -146h-111v25q48 62 104 150t87 153h202z"/>
<glyph glyph-name="Ecircumflex" horiz-adv-x="1139" unicode="Ê" d="M1016 1311h-645v-471h606v-150h-606v-538h645v-152h-815v1462h815v-151zM937 1579h-119q-86 54 -221 186q-137 -133 -219 -186h-115v23q129 139 180 203t72 102h166q24 -45 77 -108q46 -58 179 -197v-23z"/>
<glyph glyph-name="Edieresis" horiz-adv-x="1139" unicode="Ë" d="M1016 1311h-645v-471h606v-150h-606v-538h645v-152h-815v1462h815v-151zM798 1829q40 -1 66 -25t26 -72t-26 -74t-66 -26q-38 0 -64 26t-26 74t25 72t65 25zM352 1804q26 24 66 25q40 -1 66 -25t26 -72t-26 -74t-66 -26t-66 26t-25 74q0 48 25 72z"/>
<glyph glyph-name="Igrave" horiz-adv-x="571" unicode="Ì" d="M371 0h-170v1462h170v-1462zM5 1907h203q32 -69 89 -159t101 -144v-25h-110q-66 53 -155 149t-128 158v21z"/>
<glyph glyph-name="Iacute" horiz-adv-x="571" unicode="Í" d="M371 0h-170v1462h170v-1462zM572 1907v-21q-45 -66 -132 -161t-150 -146h-111v25q47 62 103 150t88 153h202z"/>
<glyph glyph-name="Icircumflex" horiz-adv-x="571" unicode="Î" d="M371 0h-170v1462h170v-1462zM617 1579h-119q-86 54 -221 186q-137 -133 -219 -186h-115v23q129 139 180 203t72 102h166q24 -45 77 -108q46 -58 179 -197v-23z"/>
<glyph glyph-name="Idieresis" horiz-adv-x="571" unicode="Ï" d="M371 0h-170v1462h170v-1462zM476 1829q40 -1 66 -25t26 -72t-26 -74t-66 -26q-38 0 -64 26t-26 74t25 72t65 25zM30 1804q26 24 66 25q40 -1 66 -25t26 -72t-26 -74t-66 -26t-66 26t-25 74q0 48 25 72z"/>
<glyph glyph-name="Eth" horiz-adv-x="1479" unicode="Ð" d="M371 1315v-516h379v-150h-379v-502h190q610 0 610 592q0 576 -569 576h-231zM201 1462h434q337 0 527 -188t190 -529q0 -361 -196 -553t-566 -192h-389v649h-154v150h154v663z"/>
<glyph glyph-name="Ntilde" horiz-adv-x="1544" unicode="Ñ" d="M1343 0h-194l-799 1227h-8q16 -209 16 -396v-831h-157v1462h192l797 -1222h8q-4 44 -9 168t-5 162v53v839h159v-1462zM935 1581q-60 0 -164 60q-38 22 -54 31q-54 28 -98 28q-43 0 -69 -29t-41 -92h-98q13 121 71 189t148 69q69 0 171 -59q15 -10 25 -15t20 -11t16 -8 l14 -7l14 -7q6 -2 14 -5t14 -4q18 -3 26 -3q48 0 72 28t40 93h99q-13 -122 -70 -190t-150 -68z"/>
<glyph glyph-name="Ograve" horiz-adv-x="1595" unicode="Ò" d="M1166 1180q-124 152 -366 153t-368 -153t-127 -448q1 -294 127 -449q126 -154 368 -154t366 153q124 154 124 450t-124 448zM302 1289q176 196 494 196t496 -200t178 -552q0 -353 -178 -553t-497 -200t-495 197t-175 557t177 555zM514 1907h203q32 -69 89 -159t101 -144 v-25h-110q-66 53 -155 149t-128 158v21z"/>
<glyph glyph-name="Oacute" horiz-adv-x="1595" unicode="Ó" d="M1166 1180q-124 152 -366 153t-368 -153t-127 -448q1 -294 127 -449q126 -154 368 -154t366 153q124 154 124 450t-124 448zM302 1289q176 196 494 196t496 -200t178 -552q0 -353 -178 -553t-497 -200t-495 197t-175 557t177 555zM1052 1907v-21q-45 -66 -132 -161 t-150 -146h-111v25q47 62 103 150t88 153h202z"/>
<glyph glyph-name="Ocircumflex" horiz-adv-x="1595" unicode="Ô" d="M1166 1180q-124 152 -366 153t-368 -153t-127 -448q1 -294 127 -449q126 -154 368 -154t366 153q124 154 124 450t-124 448zM302 1289q176 196 494 196t496 -200t178 -552q0 -353 -178 -553t-497 -200t-495 197t-175 557t177 555zM1122 1579h-119q-86 54 -221 186 q-136 -133 -219 -186h-115v23q129 139 180 203t72 102h166q24 -45 77 -108q46 -58 179 -197v-23z"/>
<glyph glyph-name="Otilde" horiz-adv-x="1595" unicode="Õ" d="M1166 1180q-124 152 -366 153t-368 -153t-127 -448q1 -294 127 -449q126 -154 368 -154t366 153q124 154 124 450t-124 448zM302 1289q176 196 494 196t496 -200t178 -552q0 -353 -178 -553t-497 -200t-495 197t-175 557t177 555zM942 1581q-60 0 -164 60q-38 22 -54 31 q-54 28 -98 28t-70 -29t-40 -92h-98q12 121 70 189t149 69q69 0 171 -59q15 -10 25 -15q11 -5 21 -11t14 -8l14 -7t16 -7t13 -5q8 -3 14 -4q18 -3 26 -3q47 0 71 28t41 93h99q-13 -122 -70 -190t-150 -68z"/>
<glyph glyph-name="Odieresis" horiz-adv-x="1595" unicode="Ö" d="M1166 1180q-124 152 -366 153t-368 -153t-127 -448q1 -294 127 -449q126 -154 368 -154t366 153q124 154 124 450t-124 448zM302 1289q176 196 494 196t496 -200t178 -552q0 -353 -178 -553t-497 -200t-495 197t-175 557t177 555zM993 1829q40 -1 66 -25t26 -72 q-1 -48 -27 -74t-65 -26t-65 26t-25 74q0 48 25 72t65 25zM547 1804q25 24 65 25q40 -1 67 -25q26 -24 26 -72t-26 -74t-66 -26q-39 0 -65 26t-26 74t25 72z"/>
<glyph glyph-name="multiply" d="M1036 1077l-352 -354l350 -352l-96 -99l-354 351l-348 -351l-101 99l350 352l-352 352l100 101l353 -355l354 355z" unicode="×"/>
<glyph glyph-name="Oslash" horiz-adv-x="1595" unicode="Ø" d="M799 129q243 0 367 153t124 451q0 271 -110 426l-672 -948q115 -82 291 -82zM801 1333q-243 1 -369 -153t-127 -447q0 -261 101 -416l669 943q-106 73 -274 73zM1278 1298q192 -203 192 -560q0 -358 -178 -558t-493 -200q-235 0 -383 100l-101 -141l-120 79l108 154 q-178 197 -178 559q1 362 177 558t499 196q209 0 366 -94l97 135l120 -80z"/>
<glyph glyph-name="Ugrave" horiz-adv-x="1491" unicode="Ù" d="M1305 1462v-946q0 -250 -151 -393q-150 -143 -414 -143t-409 144t-145 396v942h170v-954q0 -184 100 -282t290 -97q189 1 289 99t100 282v952h170zM463 1907h203q32 -69 89 -159t101 -144v-25h-110q-66 53 -155 149t-128 158v21z"/>
<glyph glyph-name="Uacute" horiz-adv-x="1491" unicode="Ú" d="M1305 1462v-946q0 -250 -151 -393q-150 -143 -414 -143t-409 144t-145 396v942h170v-954q0 -184 100 -282t290 -97q189 1 289 99t100 282v952h170zM993 1907v-21q-45 -66 -132 -161t-150 -146h-111v25q48 62 104 150t87 153h202z"/>
<glyph glyph-name="Ucircumflex" horiz-adv-x="1491" unicode="Û" d="M1305 1462v-946q0 -250 -151 -393q-150 -143 -414 -143t-409 144t-145 396v942h170v-954q0 -184 100 -282t290 -97q189 1 289 99t100 282v952h170zM1067 1579h-119q-86 54 -221 186q-137 -133 -219 -186h-115v23q129 139 180 203t72 102h166q24 -45 77 -108 q46 -58 179 -197v-23z"/>
<glyph glyph-name="Udieresis" horiz-adv-x="1491" unicode="Ü" d="M1305 1462v-946q0 -250 -151 -393q-150 -143 -414 -143t-409 144t-145 396v942h170v-954q0 -184 100 -282t290 -97q189 1 289 99t100 282v952h170zM932 1829q40 -1 66 -25t26 -72t-26 -74t-66 -26q-38 0 -64 26t-26 74t25 72t65 25zM486 1804q26 24 66 25q40 -1 66 -25 t26 -72t-26 -74t-66 -26t-66 26t-25 74q0 48 25 72z"/>
<glyph glyph-name="Yacute" horiz-adv-x="1147" unicode="Ý" d="M659 0h-172v559l-487 903h186l387 -731l390 731h184l-488 -895v-567zM835 1907v-21q-45 -66 -132 -161t-150 -146h-111v25q48 62 104 150t87 153h202z"/>
<glyph glyph-name="Thorn" horiz-adv-x="1251" unicode="Þ" d="M371 1059v-594h168q227 -1 327 71t101 228q0 156 -95 226q-95 69 -297 69h-204zM371 1206h215q282 0 420 -104t139 -324q0 -221 -151 -340t-439 -119h-184v-319h-170v1462h170v-256z"/>
<glyph glyph-name="germandbls" horiz-adv-x="1274" unicode="ß" d="M176 0v1202q0 179 111 272t324 93q213 -1 325 -79t113 -217q0 -139 -143 -255q-88 -69 -116 -103q-28 -35 -28 -67t13 -52t49 -50q36 -29 114 -80q138 -94 190 -172t52 -181q0 -159 -97 -245t-281 -86t-290 69v154q64 -39 142 -63t149 -23q215 0 215 182q0 75 -41 129 t-160 129t-167 137t-48 146q0 62 34 115t108 109t106 100t31 98q0 80 -68 122t-195 43q-276 0 -276 -223v-1204h-166z"/>
<glyph glyph-name="agrave" horiz-adv-x="1139" unicode="à" d="M268 301q0 -89 54 -137t153 -47q156 0 244 85t88 238v99l-166 -7q-197 -8 -285 -62t-88 -169zM217 1020q172 94 370 94t292 -88t94 -278v-748h-123l-33 156h-8q-80 -100 -161 -138t-206 -38q-164 0 -256 84t-92 239q0 331 531 348l186 6v68q0 130 -56 191q-55 61 -185 61 t-302 -84zM279 1569h203q32 -69 89 -159t101 -144v-25h-110q-66 53 -155 149t-128 158v21z"/>
<glyph glyph-name="aacute" horiz-adv-x="1139" unicode="á" d="M268 301q0 -89 54 -137t153 -47q156 0 244 85t88 238v99l-166 -7q-197 -8 -285 -62t-88 -169zM217 1020q172 94 370 94t292 -88t94 -278v-748h-123l-33 156h-8q-80 -100 -161 -138t-206 -38q-164 0 -256 84t-92 239q0 331 531 348l186 6v68q0 130 -56 191q-55 61 -185 61 t-302 -84zM829 1569v-21q-45 -66 -132 -161t-150 -146h-111v25q48 62 104 150t87 153h202z"/>
<glyph glyph-name="acircumflex" horiz-adv-x="1139" unicode="â" d="M268 301q0 -89 54 -137t153 -47q156 0 244 85t88 238v99l-166 -7q-197 -8 -285 -62t-88 -169zM217 1020q172 94 370 94t292 -88t94 -278v-748h-123l-33 156h-8q-80 -100 -161 -138t-206 -38q-164 0 -256 84t-92 239q0 331 531 348l186 6v68q0 130 -56 191q-55 61 -185 61 t-302 -84zM902 1241h-119q-86 54 -221 186q-136 -133 -219 -186h-115v23q129 139 180 203t72 102h166q24 -45 77 -108q46 -58 179 -197v-23z"/>
<glyph glyph-name="atilde" horiz-adv-x="1139" unicode="ã" d="M268 301q0 -89 54 -137t153 -47q156 0 244 85t88 238v99l-166 -7q-197 -8 -285 -62t-88 -169zM217 1020q172 94 370 94t292 -88t94 -278v-748h-123l-33 156h-8q-80 -100 -161 -138t-206 -38q-164 0 -256 84t-92 239q0 331 531 348l186 6v68q0 130 -56 191q-55 61 -185 61 t-302 -84zM721 1243q-60 0 -164 60q-38 22 -54 31q-54 28 -98 28q-43 0 -69 -29t-41 -92h-98q13 121 71 189t148 69q69 0 171 -59q15 -10 25 -15t20 -11t16 -8l14 -7l14 -7q6 -2 14 -5t14 -4q18 -3 26 -3q48 0 72 28t40 93h99q-13 -122 -70 -190t-150 -68z"/>
<glyph glyph-name="adieresis" horiz-adv-x="1139" unicode="ä" d="M268 301q0 -89 54 -137t153 -47q156 0 244 85t88 238v99l-166 -7q-197 -8 -285 -62t-88 -169zM217 1020q172 94 370 94t292 -88t94 -278v-748h-123l-33 156h-8q-80 -100 -161 -138t-206 -38q-164 0 -256 84t-92 239q0 331 531 348l186 6v68q0 130 -56 191q-55 61 -185 61 t-302 -84zM750 1491q40 -1 66 -25t26 -72t-26 -74t-66 -26q-38 0 -64 26t-26 74t25 72t65 25zM304 1466q26 24 66 25q40 -1 66 -25t26 -72t-26 -74t-66 -26t-66 26t-25 74q0 48 25 72z"/>
<glyph glyph-name="aring" horiz-adv-x="1139" unicode="å" d="M268 301q0 -89 54 -137t153 -47q156 0 244 85t88 238v99l-166 -7q-197 -8 -285 -62t-88 -169zM217 1020q172 94 370 94t292 -88t94 -278v-748h-123l-33 156h-8q-80 -100 -161 -138t-206 -38q-164 0 -256 84t-92 239q0 331 531 348l186 6v68q0 130 -56 191q-55 61 -185 61 t-302 -84zM579 1573q-53 0 -85 -31q-32 -30 -32 -86t30 -86t85 -31q55 0 87 31t32 86t-32 86t-85 31zM418 1612q60 58 162 57q100 0 162 -59q62 -58 62 -154t-62 -156t-162 -59q-102 1 -162 59t-60 156t60 156z"/>
<glyph glyph-name="ae" horiz-adv-x="1757" unicode="æ" d="M268 301q0 -92 52 -138t143 -46q145 0 229 85t84 238v99l-158 -7q-186 -8 -268 -62t-82 -169zM1473 653q0 156 -64 240q-65 84 -185 84t-190 -83t-80 -241h519zM557 1114q131 0 213 -44t123 -138q53 88 139 136t195 48q192 0 308 -134t116 -355v-107h-701 q8 -395 322 -395q173 0 332 74v-148q-88 -39 -162 -55t-174 -16q-289 0 -414 233q-80 -125 -178 -179t-234 -54q-164 0 -256 85t-92 243t125 246t377 97l184 6v68q0 129 -58 191t-177 61q-143 0 -307 -84l-52 127q76 42 176 68t195 26z"/>
<glyph glyph-name="ccedilla" horiz-adv-x="975" unicode="ç" d="M621 969q-334 0 -334 -426q0 -203 82 -311t241 -107q136 0 281 59v-147q-105 -54 -264 -57l-45 -95q180 -39 180 -174q0 -99 -77 -151t-226 -52q-51 0 -96 9v106q48 -8 117 -8t108 21q39 20 39 68t-39 75q-43 27 -149 43l81 164q-195 28 -300 172t-105 383q1 275 133 425 t377 150q77 0 157 -16t125 -41l-51 -141q-128 51 -235 51z"/>
<glyph glyph-name="egrave" horiz-adv-x="1149" unicode="è" d="M864 653q0 156 -70 240t-200 84q-130 1 -210 -85q-79 -86 -93 -239h573zM639 -20q-244 0 -384 148t-140 412q1 264 131 420t342 156t334 -135q120 -135 120 -358v-105h-755q5 -192 97 -292t264 -101q172 0 347 74v-148q-89 -39 -168 -55t-188 -16zM318 1569h203 q32 -69 89 -159t101 -144v-25h-110q-66 53 -155 149t-128 158v21z"/>
<glyph glyph-name="eacute" horiz-adv-x="1149" unicode="é" d="M864 653q0 156 -70 240t-200 84q-130 1 -210 -85q-79 -86 -93 -239h573zM639 -20q-244 0 -384 148t-140 412q1 264 131 420t342 156t334 -135q120 -135 120 -358v-105h-755q5 -192 97 -292t264 -101q172 0 347 74v-148q-89 -39 -168 -55t-188 -16zM864 1569v-21 q-45 -66 -132 -161t-150 -146h-111v25q47 62 103 150t88 153h202z"/>
<glyph glyph-name="ecircumflex" horiz-adv-x="1149" unicode="ê" d="M864 653q0 156 -70 240t-200 84q-130 1 -210 -85q-79 -86 -93 -239h573zM639 -20q-244 0 -384 148t-140 412q1 264 131 420t342 156t334 -135q120 -135 120 -358v-105h-755q5 -192 97 -292t264 -101q172 0 347 74v-148q-89 -39 -168 -55t-188 -16zM933 1241h-119 q-86 54 -221 186q-137 -133 -219 -186h-115v23q129 139 180 203t72 102h166q24 -45 77 -108q46 -58 179 -197v-23z"/>
<glyph glyph-name="edieresis" horiz-adv-x="1149" unicode="ë" d="M864 653q0 156 -70 240t-200 84q-130 1 -210 -85q-79 -86 -93 -239h573zM639 -20q-244 0 -384 148t-140 412q1 264 131 420t342 156t334 -135q120 -135 120 -358v-105h-755q5 -192 97 -292t264 -101q172 0 347 74v-148q-89 -39 -168 -55t-188 -16zM790 1491q40 -1 66 -25 t26 -72t-26 -74t-66 -26q-38 0 -64 26t-26 74t25 72t65 25zM344 1466q26 24 66 25q40 -1 66 -25t26 -72t-26 -74t-66 -26t-66 26t-25 74q0 48 25 72z"/>
<glyph glyph-name="igrave" horiz-adv-x="518" unicode="ì" d="M342 0h-166v1096h166v-1096zM-38 1569h203q32 -69 89 -159t101 -144v-25h-110q-66 53 -155 149t-128 158v21z"/>
<glyph glyph-name="iacute" horiz-adv-x="518" unicode="í" d="M342 0h-166v1096h166v-1096zM562 1569v-21q-45 -66 -132 -161t-150 -146h-111v25q47 62 103 150t88 153h202z"/>
<glyph glyph-name="icircumflex" horiz-adv-x="518" unicode="î" d="M342 0h-166v1096h166v-1096zM597 1241h-119q-86 54 -221 186q-137 -133 -219 -186h-115v23q129 139 180 203t72 102h166q24 -45 77 -108q46 -58 179 -197v-23z"/>
<glyph glyph-name="idieresis" horiz-adv-x="518" unicode="ï" d="M342 0h-166v1096h166v-1096zM451 1491q40 -1 66 -25t26 -72q-1 -48 -27 -74t-65 -26t-65 26t-25 74q0 48 25 72t65 25zM5 1466q25 24 65 25q40 -1 67 -25q26 -24 26 -72t-26 -74t-66 -26q-39 0 -65 26t-26 74t25 72z"/>
<glyph glyph-name="eth" horiz-adv-x="1221" unicode="ð" d="M618 829q-337 0 -337 -360q-1 -167 87 -259t255 -91q331 0 331 393q0 147 -90 232t-246 85zM1122 563q0 -283 -131 -433t-377 -150q-224 0 -362 136t-139 362q0 226 131 358q130 132 354 131q224 0 324 -121l8 4q-57 215 -262 405l-271 -155l-73 108l233 133 q-91 61 -186 111l69 117q158 -74 258 -148l238 138l76 -107l-207 -119q153 -144 235 -343t82 -427z"/>
<glyph glyph-name="ntilde" horiz-adv-x="1257" unicode="ñ" d="M694 1116q202 0 300 -97t98 -304v-715h-166v709q0 135 -62 201t-190 65q-172 0 -252 -94t-80 -306v-575h-166v1096h135l27 -150h8q50 82 142 126t206 44zM802 1243q-60 0 -164 60q-38 22 -54 31q-54 28 -98 28t-70 -29t-40 -92h-98q12 121 70 189t149 69q69 0 171 -59 q15 -10 25 -15q11 -5 21 -11t14 -8l14 -7t16 -7t13 -5q8 -3 14 -4q18 -3 26 -3q47 0 71 28t41 93h99q-13 -122 -70 -190t-150 -68z"/>
<glyph glyph-name="ograve" horiz-adv-x="1237" unicode="ò" d="M616 975q-329 0 -329 -426q1 -210 85 -320t246 -110q162 -1 248 109q84 110 84 320t-84 319q-84 108 -250 108zM249 966q134 150 368 150q233 0 369 -153t136 -417t-135 -415t-373 -151q-147 0 -261 69t-176 199t-62 301q0 267 134 417zM349 1569h203q32 -69 89 -159 t101 -144v-25h-110q-66 53 -155 149t-128 158v21z"/>
<glyph glyph-name="oacute" horiz-adv-x="1237" unicode="ó" d="M616 975q-329 0 -329 -426q1 -210 85 -320t246 -110q162 -1 248 109q84 110 84 320t-84 319q-84 108 -250 108zM249 966q134 150 368 150q233 0 369 -153t136 -417t-135 -415t-373 -151q-147 0 -261 69t-176 199t-62 301q0 267 134 417zM872 1569v-21q-45 -66 -132 -161 t-150 -146h-111v25q47 62 103 150t88 153h202z"/>
<glyph glyph-name="ocircumflex" horiz-adv-x="1237" unicode="ô" d="M616 975q-329 0 -329 -426q1 -210 85 -320t246 -110q162 -1 248 109q84 110 84 320t-84 319q-84 108 -250 108zM249 966q134 150 368 150q233 0 369 -153t136 -417t-135 -415t-373 -151q-147 0 -261 69t-176 199t-62 301q0 267 134 417zM956 1241h-119q-86 54 -221 186 q-136 -133 -219 -186h-115v23q129 139 180 203t72 102h166q24 -45 77 -108q46 -58 179 -197v-23z"/>
<glyph glyph-name="otilde" horiz-adv-x="1237" unicode="õ" d="M616 975q-329 0 -329 -426q1 -210 85 -320t246 -110q162 -1 248 109q84 110 84 320t-84 319q-84 108 -250 108zM249 966q134 150 368 150q233 0 369 -153t136 -417t-135 -415t-373 -151q-147 0 -261 69t-176 199t-62 301q0 267 134 417zM773 1243q-60 0 -164 60 q-38 22 -54 31q-54 28 -98 28q-43 0 -69 -29t-41 -92h-98q13 121 71 189t148 69q69 0 171 -59q15 -10 25 -15t20 -11t16 -8l14 -7l14 -7q6 -2 14 -5t14 -4q18 -3 26 -3q48 0 72 28t40 93h99q-13 -122 -70 -190t-150 -68z"/>
<glyph glyph-name="odieresis" horiz-adv-x="1237" unicode="ö" d="M616 975q-329 0 -329 -426q1 -210 85 -320t246 -110q162 -1 248 109q84 110 84 320t-84 319q-84 108 -250 108zM249 966q134 150 368 150q233 0 369 -153t136 -417t-135 -415t-373 -151q-147 0 -261 69t-176 199t-62 301q0 267 134 417zM807 1491q40 -1 66 -25t26 -72 q-1 -48 -27 -74t-65 -26t-65 26t-25 74q0 48 25 72t65 25zM361 1466q25 24 65 25q40 -1 67 -25q26 -24 26 -72t-26 -74t-66 -26q-39 0 -65 26t-26 74t25 72z"/>
<glyph glyph-name="divide" d="M500 463q28 31 82 31t83 -32t29 -88q0 -58 -30 -90t-80 -32q-52 0 -82 32t-31 90q0 58 29 89zM1065 653h-961v138h961v-138zM500 1161q28 31 82 31t83 -32t29 -88q0 -58 -30 -90t-80 -32q-52 0 -82 32t-31 90q0 58 29 89z" unicode="÷"/>
<glyph glyph-name="oslash" horiz-adv-x="1237" unicode="ø" d="M618 119q164 -1 248 109t84 321q0 163 -51 264l-465 -643q70 -51 184 -51zM616 975q-329 0 -329 -426q0 -170 53 -273l465 646q-76 53 -189 53zM995 950q127 -152 127 -410t-135 -409t-373 -151q-153 0 -266 69l-84 -117l-114 78l94 131q-129 151 -129 413t134 412 t372 150q155 0 270 -76l84 119l117 -76z"/>
<glyph glyph-name="ugrave" horiz-adv-x="1257" unicode="ù" d="M1081 0h-137l-24 147h-9q-51 -81 -141 -124t-207 -43q-203 0 -301 96t-98 303v717h168v-711q0 -135 62 -201t190 -65q173 1 252 95t79 306v576h166v-1096zM333 1569h203q32 -69 89 -159t101 -144v-25h-110q-66 53 -155 149t-128 158v21z"/>
<glyph glyph-name="uacute" horiz-adv-x="1257" unicode="ú" d="M1081 0h-137l-24 147h-9q-51 -81 -141 -124t-207 -43q-203 0 -301 96t-98 303v717h168v-711q0 -135 62 -201t190 -65q173 1 252 95t79 306v576h166v-1096zM899 1569v-21q-45 -66 -132 -161t-150 -146h-111v25q48 62 104 150t87 153h202z"/>
<glyph glyph-name="ucircumflex" horiz-adv-x="1257" unicode="û" d="M1081 0h-137l-24 147h-9q-51 -81 -141 -124t-207 -43q-203 0 -301 96t-98 303v717h168v-711q0 -135 62 -201t190 -65q173 1 252 95t79 306v576h166v-1096zM960 1241h-119q-86 54 -221 186q-136 -133 -219 -186h-115v23q129 139 180 203t72 102h166q24 -45 77 -108 q46 -58 179 -197v-23z"/>
<glyph glyph-name="udieresis" horiz-adv-x="1257" unicode="ü" d="M1081 0h-137l-24 147h-9q-51 -81 -141 -124t-207 -43q-203 0 -301 96t-98 303v717h168v-711q0 -135 62 -201t190 -65q173 1 252 95t79 306v576h166v-1096zM813 1491q40 -1 66 -25t26 -72q-1 -48 -27 -74t-65 -26t-65 26t-25 74q0 48 25 72t65 25zM367 1466q25 24 65 25 q40 -1 67 -25q26 -24 26 -72t-26 -74t-66 -26q-39 0 -65 26t-26 74t25 72z"/>
<glyph glyph-name="yacute" horiz-adv-x="1032" unicode="ý" d="M166 -492q-74 0 -150 17v133q56 -12 123 -12q171 0 244 192l61 156l-442 1102h178l240 -625q77 -208 98 -309h8q15 56 50 161t276 773h178l-471 -1248q-69 -182 -162 -261t-231 -79zM804 1569v-21q-45 -66 -132 -161t-150 -146h-111v25q47 62 103 150t88 153h202z"/>
<glyph glyph-name="thorn" horiz-adv-x="1255" unicode="þ" d="M342 549q0 -230 76 -330t248 -100q303 0 303 432q-1 216 -75 320t-236 104q-162 1 -238 -91t-78 -294v-41zM342 1556v-466q0 -52 -6 -142h8q124 168 340 168t337 -150q120 -150 120 -418q-1 -268 -121 -418t-338 -150t-340 161h-12l4 -34q8 -82 8 -140v-459h-166v2048 h166z"/>
<glyph glyph-name="OE" horiz-adv-x="1890" unicode="Œ" d="M811 1333q-249 -1 -377 -153t-129 -448q1 -296 129 -450t375 -153q112 0 199 33v1141q-87 30 -197 30zM1767 0h-768q-105 -20 -194 -20q-327 0 -503 196t-177 558q0 361 174 556t494 195q100 0 192 -23h782v-151h-589v-471h551v-150h-551v-538h589v-152z"/>
<glyph glyph-name="oe" horiz-adv-x="1929" unicode="œ" d="M1642 653q0 158 -66 240t-194 82t-200 -82t-84 -240h544zM844 869q-78 106 -241 106q-164 0 -240 -106q-76 -107 -76 -321t77 -322t240 -107q162 -1 240 105t78 322t-78 323zM1430 -20q-294 0 -418 235q-62 -115 -166 -175t-242 -60q-224 0 -358 153t-133 417 q-1 264 131 414t366 150q132 0 234 -60t164 -173q58 113 154 173t222 60q201 0 320 -132t119 -359v-105h-729q8 -393 338 -393q177 0 342 74v-148q-88 -39 -164 -55t-180 -16z"/>
<glyph glyph-name="Scaron" horiz-adv-x="1124" unicode="Š" d="M512 129q168 0 255 64t87 180q0 75 -30 124t-102 89t-218 94q-204 73 -292 173q-88 101 -87 265t127 264t340 101q214 0 397 -80l-53 -148q-180 76 -352 76q-135 0 -211 -58t-76 -161q0 -76 28 -124t94 -88t204 -91q227 -81 315 -175t88 -245q0 -193 -140 -301t-390 -108 q-252 0 -390 67v164q193 -82 406 -82zM240 1907h115q114 -73 219 -189q132 132 221 189h119v-25l-66 -68q-143 -148 -190 -235h-166q-22 39 -74 103t-178 200v25z"/>
<glyph glyph-name="scaron" horiz-adv-x="977" unicode="š" d="M453 117q270 0 270 168q0 64 -55 110q-56 45 -217 107q-154 57 -217 100q-128 83 -128 221q0 137 109 215t292 78t353 -72l-59 -135q-167 68 -291 68q-124 -1 -185 -37t-61 -102q0 -44 22 -75t72 -59t193 -81q191 -70 261 -141t71 -183q1 -153 -113 -236t-326 -83 t-335 69v154q170 -86 344 -86zM165 1569h115q114 -73 219 -189q132 132 221 189h119v-25l-66 -68q-143 -148 -190 -235h-166q-21 39 -73 103t-179 200v25z"/>
<glyph glyph-name="Ydieresis" horiz-adv-x="1147" unicode="Ÿ" d="M659 0h-172v559l-487 903h186l387 -731l390 731h184l-488 -895v-567zM765 1829q40 -1 66 -25t26 -72q-1 -48 -27 -74t-65 -26t-65 26t-25 74q0 48 25 72t65 25zM319 1804q25 24 65 25q40 -1 67 -25q26 -24 26 -72t-26 -74t-66 -26q-39 0 -65 26t-26 74t25 72z"/>
<glyph glyph-name="circumflex" horiz-adv-x="1212" unicode="ˆ" d="M942 1241h-119q-86 54 -221 186q-136 -133 -219 -186h-115v23q129 139 180 203t72 102h166q24 -45 77 -108q46 -58 179 -197v-23z"/>
<glyph glyph-name="tilde" horiz-adv-x="1212" unicode="˜" d="M788 1243q-60 0 -164 60q-38 22 -54 31q-54 28 -98 28t-70 -29t-40 -92h-98q12 121 70 189t149 69q69 0 171 -59q15 -10 25 -15q11 -5 21 -11t14 -8l14 -7t16 -7t13 -5q8 -3 14 -4q18 -3 26 -3q47 0 71 28t41 93h99q-13 -122 -70 -190t-150 -68z"/>
<glyph glyph-name="mu" horiz-adv-x="1268" unicode="μ" d="M1092 0h-136l-26 147h-10q-111 -167 -340 -167q-149 0 -238 92h-10q10 -80 10 -244v-320h-166v1588h166v-715q0 -262 254 -262q172 0 251 95t79 306v576h166v-1096z"/>
<glyph glyph-name="endash" horiz-adv-x="1024" unicode="–" d="M942 473h-860v152h860v-152z"/>
<glyph glyph-name="emdash" horiz-adv-x="2048" unicode="—" d="M1966 473h-1884v152h1884v-152z"/>
<glyph glyph-name="quoteleft" horiz-adv-x="348" unicode="‘" d="M25 982q51 203 176 480h123q-65 -249 -103 -501h-184z"/>
<glyph glyph-name="quotesinglbase" horiz-adv-x="502" unicode="‚" d="M350 238l15 -23q-25 -99 -75 -231t-102 -248h-125q29 111 59 257q31 140 46 245h182z"/>
<glyph glyph-name="quotedblleft" horiz-adv-x="717" unicode="“" d="M692 1462q-71 -273 -102 -501h-184l-15 21q54 211 178 480h123zM25 982q51 203 176 480h123q-65 -249 -103 -501h-184z"/>
<glyph glyph-name="quotedblright" horiz-adv-x="717" unicode="”" d="M391 961q77 303 105 501h182l14 -22q-22 -88 -70 -220t-106 -259h-125zM324 1440q-55 -215 -177 -479h-122q71 285 102 501h182z"/>
<glyph glyph-name="dagger" horiz-adv-x="1028" unicode="†" d="M553 1139l352 30v-171l-352 32l49 -1030h-196l49 1030l-332 -32v171l332 -30l-49 417h196z"/>
<glyph glyph-name="daggerdbl" horiz-adv-x="1044" unicode="‡" d="M569 1176l353 30v-168l-353 31l43 -283l-43 -299l353 31v-168l-353 29l49 -379h-198l49 379l-346 -29v168l346 -31l-43 299l43 283l-346 -31v168l346 -30l-49 380h198z"/>
<glyph glyph-name="ellipsis" horiz-adv-x="1606" unicode="…" d="M1244 207q30 35 88 35t90 -35t32 -101t-32 -100q-32 -35 -89 -35q-56 0 -88 33q-32 32 -32 100q1 68 31 103zM712 207q30 35 88 35t90 -35t33 -101q-1 -66 -33 -100q-32 -35 -88 -35t-88 33q-32 32 -32 100t30 103zM182 207q30 35 88 35t90 -35t33 -101q-1 -66 -33 -100 q-32 -35 -88 -35t-88 33q-32 32 -32 100t30 103z"/>
<glyph glyph-name="perthousand" horiz-adv-x="2462" unicode="‰" d="M2046 776q-92 0 -134 -82t-42 -254q0 -173 42 -257t134 -84q180 1 180 339t-180 338zM1313 776q-92 0 -133 -82t-41 -254q0 -174 41 -258t133 -83q180 1 180 339t-180 338zM2046 897q151 -1 234 -119t83 -342q-1 -224 -81 -340t-232 -116t-234 120t-81 340q0 457 311 457 zM1313 897q151 -1 234 -119t83 -342t-80 -340t-234 -116q-153 0 -234 119t-81 341q0 457 312 457zM412 1364q-92 0 -134 -83t-42 -255t42 -256t134 -84q180 0 180 339t-180 339zM535 0h-148l811 1462h148zM412 1483q152 -1 234 -121t83 -342q0 -222 -80 -339 q-79 -116 -233 -116q-154 -1 -236 119t-81 342q0 457 313 457z"/>
<glyph glyph-name="guilsinglleft" horiz-adv-x="623" unicode="‹" d="M543 889l-289 -350l289 -351l-119 -71l-342 407v27l342 407z"/>
<glyph glyph-name="guilsinglright" horiz-adv-x="623" unicode="›" d="M541 551v-27l-344 -407l-117 71l287 351l-287 350l117 69z"/>
<glyph glyph-name="Euro" horiz-adv-x="1208" unicode="€" d="M63 930h164q39 261 185 407t383 146q202 0 366 -97l-71 -139q-169 86 -295 86q-319 0 -398 -403h510v-129h-524l-2 -57v-64l2 -45h463v-129h-447q37 -183 139 -280t265 -97q162 0 315 66v-150q-147 -65 -317 -65q-236 0 -381 134t-191 392h-166v129h152l-2 42v44l2 80 h-152v129z"/>
<glyph glyph-name="trademark" horiz-adv-x="1589" unicode="™" d="M1413 741h-127v420l6 137h-8l-211 -557h-105l-200 559h-8l6 -129v-430h-119v721h187l196 -559l203 559h180v-721zM580 1356h-211v-615h-123v615h-209v106h543v-106z"/>
</font>
</defs>
</svg>
