<?xml version="1.0" standalone="no"?>
<!DOCTYPE svg PUBLIC "-//W3C//DTD SVG 1.1//EN" "http://www.w3.org/Graphics/SVG/1.1/DTD/svg11.dtd" >
<svg xmlns="http://www.w3.org/2000/svg">
<metadata>Generated by IcoMoon</metadata>
<defs>
<font id="icomoon" horiz-adv-x="1024">
<font-face units-per-em="1024" ascent="960" descent="-64" />
<missing-glyph horiz-adv-x="1024" />
<glyph unicode="&#x20;" d="" horiz-adv-x="512" />
<glyph unicode="&#xe600;" d="M839.866 421.037c-0.087 0-0.202 0-0.289 0h-664.691c-5.607 0-10.707 3.251-13.077 8.323-2.384 5.086-1.604 11.083 1.98 15.375l144.498 173.398c2.745 3.295 6.82 5.202 11.112 5.202h375.695c4.292 0 8.352-1.907 11.112-5.202l142.995-171.591c3.15-2.659 5.13-6.618 5.13-11.054-0.014-7.976-6.474-14.45-14.464-14.45zM205.736 449.936h602.99l-120.425 144.498h-362.141l-120.425-144.498zM507.246 45.342c-6.011 0-11.618 3.786-13.67 9.783l-187.847 549.093c-2.587 7.543 1.445 15.765 9.002 18.351 7.499 2.601 15.75-1.459 18.351-9.002l187.847-549.093c2.587-7.543-1.445-15.765-9.002-18.351-1.561-0.535-3.136-0.78-4.682-0.78zM377.183 421.037c-3.020 0-6.054 0.939-8.655 2.89-6.387 4.783-7.687 13.843-2.89 20.23l130.048 173.398c4.768 6.372 13.828 7.702 20.215 2.89 6.387-4.783 7.687-13.843 2.89-20.23l-130.048-173.398c-2.832-3.786-7.167-5.78-11.56-5.78zM637.294 421.037c-4.407 0-8.728 1.994-11.574 5.78l-130.048 173.398c-4.797 6.387-3.497 15.447 2.89 20.23 6.358 4.812 15.432 3.497 20.215-2.89l130.048-173.398c4.797-6.387 3.497-15.447-2.89-20.23-2.587-1.951-5.621-2.89-8.641-2.89zM507.246 45.342c-1.546 0-3.136 0.26-4.667 0.78-7.557 2.587-11.589 10.808-9.002 18.351l187.847 549.093c2.601 7.543 10.823 11.603 18.351 9.002 7.557-2.587 11.589-10.808 9.002-18.351l-187.847-549.093c-2.081-6.011-7.673-9.783-13.684-9.783zM507.246 45.342c-4.133 0-8.092 1.777-10.823 4.87l-332.346 375.695c-3.771 4.248-4.682 10.332-2.355 15.505 2.341 5.187 7.499 8.511 13.178 8.511h664.691c5.693 0 10.837-3.323 13.178-8.511 2.326-5.173 1.416-11.256-2.355-15.505l-332.346-375.695c-2.745-3.092-6.69-4.87-10.823-4.87zM206.965 421.037l300.267-339.44 300.267 339.44h-600.534zM510.064 713.4c-7.991 0-14.45 6.474-14.45 14.45v108.359c0 7.976 6.459 14.45 14.45 14.45s14.45-6.474 14.45-14.45v-108.359c0-7.991-6.459-14.45-14.45-14.45zM356.693 689.601c-5 0-9.855 2.587-12.528 7.225l-54.187 93.837c-3.988 6.907-1.618 15.75 5.289 19.738 6.893 3.988 15.75 1.618 19.738-5.289l54.187-93.837c3.988-6.907 1.618-15.75-5.289-19.738-2.283-1.315-4.768-1.936-7.21-1.936zM787.225 618.623c-5 0-9.855 2.587-12.528 7.225-3.988 6.921-1.618 15.75 5.289 19.738l93.851 54.187c6.878 3.988 15.736 1.633 19.738-5.289 3.988-6.921 1.618-15.75-5.289-19.738l-93.851-54.187c-2.269-1.315-4.754-1.936-7.21-1.936zM667.335 695.872c-2.456 0-4.942 0.621-7.21 1.936-6.921 3.988-9.291 12.831-5.289 19.738l54.187 93.837c3.988 6.921 12.831 9.291 19.738 5.289s9.291-12.831 5.289-19.738l-54.187-93.837c-2.688-4.638-7.543-7.225-12.528-7.225zM236.775 624.895c-2.456 0-4.942 0.621-7.21 1.936l-93.837 54.172c-6.921 3.988-9.291 12.831-5.289 19.738 3.988 6.921 12.831 9.291 19.738 5.289l93.837-54.172c6.921-3.988 9.291-12.831 5.289-19.738-2.688-4.638-7.543-7.225-12.528-7.225z" />
<glyph unicode="&#xe601;" d="M512.13 61.034c-0.014 0-0.029 0-0.058 0-6.069 0.014-11.473 3.829-13.539 9.537-27.773 76.786-104.313 134.441-185.348 195.463-109.717 82.624-223.192 168.066-233.971 313.127-5 67.322 17.051 131.103 62.076 179.597 44.968 48.436 107.405 76.208 171.302 76.208 82.985 0 154.729-46.369 200.202-128.242 49.722 81.641 122.939 127.881 204.176 127.881 60.516 0 119.991-26.197 163.138-71.873 45.835-48.508 68.897-113.619 64.937-183.31-8.15-143.544-123.329-230.966-234.723-315.497-80.803-61.325-157.127-119.254-184.654-193.454-2.095-5.679-7.499-9.436-13.539-9.436zM312.593 806.066c-55.877 0-110.599-24.406-150.119-66.975-39.506-42.54-58.84-98.591-54.447-157.792 9.811-131.999 117.968-213.438 222.541-292.204 74.214-55.892 144.816-109.053 181.735-178.6 36.818 67.336 106.9 120.526 180.55 176.432 106.163 80.572 215.938 163.89 223.336 294.111 3.511 61.686-16.776 119.153-57.091 161.823-37.714 39.925-89.531 62.828-142.128 62.828-78.867 0-147.041-48.436-191.98-136.377-2.529-4.942-7.572-8.077-13.207-7.861-5.549 0.13-10.534 3.425-12.817 8.468-39.231 86.525-107.16 136.146-186.374 136.146zM563.571 635.154c-2.211 0-4.465 0.506-6.575 1.589-7.109 3.627-9.913 12.34-6.286 19.449 3.41 6.661 6.95 13.063 10.621 19.204 4.104 6.835 12.976 9.060 19.825 4.971 6.849-4.104 9.060-12.976 4.971-19.825-3.352-5.592-6.589-11.43-9.696-17.513-2.529-5.014-7.601-7.875-12.86-7.875zM601.401 691.523c-3.41 0-6.835 1.199-9.595 3.641-5.968 5.303-6.502 14.435-1.199 20.403 35.604 40.040 79.301 61.224 126.378 61.224 7.976 0 14.45-6.474 14.45-14.45s-6.474-14.45-14.45-14.45c-38.581 0-74.807-17.817-104.761-51.528-2.876-3.193-6.835-4.841-10.823-4.841zM563.586 224.086c-3.945 0-7.861 1.604-10.722 4.754-5.361 5.924-4.898 15.057 1.026 20.418 32.743 29.608 68.983 57.135 104.039 83.722 17.369 13.193 34.015 25.822 50.097 38.523 6.271 4.927 15.346 3.887 20.302-2.399 4.942-6.271 3.873-15.36-2.399-20.302-16.227-12.803-33.018-25.547-49.953-38.408-35.156-26.674-70.891-53.811-102.709-82.581-2.76-2.5-6.228-3.728-9.681-3.728zM151.246 570.072c-7.499 0-13.828 5.78-14.392 13.366-0.968 12.947-0.621 25.909 1.040 38.538 1.040 7.918 8.265 13.453 16.213 12.441 7.904-1.040 13.482-8.294 12.441-16.213-1.402-10.664-1.705-21.646-0.881-32.613 0.607-7.962-5.375-14.898-13.323-15.49-0.361-0.014-0.737-0.029-1.098-0.029zM168.947 659.213c-2.225 0-4.508 0.52-6.618 1.618-7.095 3.656-9.869 12.369-6.199 19.464 3.323 6.445 7.080 12.716 11.155 18.669 4.87 7.124 10.389 14.016 16.372 20.461 33.567 36.153 81.771 57.741 128.936 57.741 7.976 0 14.45-6.474 14.45-14.45s-6.474-14.45-14.45-14.45c-39.289 0-79.561-18.135-107.767-48.494-5.014-5.404-9.624-11.17-13.713-17.137-3.41-4.985-6.546-10.23-9.335-15.606-2.543-4.971-7.601-7.817-12.831-7.817z" />
<glyph unicode="&#xe602;" d="M195.159 14.506c-14.695 0-28.871 5.823-39.318 16.285l-60.516 60.516c-11.314 11.314-17.195 26.963-16.169 42.93s8.901 30.706 21.574 40.459l138.256 106.336c28.264 21.747 35.807 60.877 17.557 91.048-63.695 105.267-54.562 206.936 27.917 310.815 4.971 6.257 14.074 7.283 20.302 2.341 6.257-4.956 7.297-14.060 2.341-20.302-75.096-94.588-83.303-182.891-25.822-277.884 25.88-42.757 15.273-98.172-24.666-128.907l-138.27-106.336c-6.17-4.754-9.855-11.661-10.361-19.435-0.506-7.788 2.254-15.114 7.774-20.62l60.516-60.516c5.52-5.505 12.788-8.251 20.62-7.774 7.788 0.506 14.695 4.19 19.449 10.375l106.307 138.212c30.764 39.983 86.251 50.56 128.979 24.622 124.528-75.558 238.798-39.289 370.551 117.52 119.977 142.807 124.673 321.638 11.43 434.896-92.233 92.219-227.498 109.168-352.994 44.26-7.109-3.67-15.823-0.881-19.478 6.199-3.67 7.095-0.896 15.808 6.199 19.478 137.1 70.92 285.297 51.947 386.706-49.491 124.283-124.283 120.266-319.153-9.739-473.91-88.606-105.469-227.281-233.061-407.658-123.647-30.186 18.308-69.33 10.765-91.092-17.528l-106.307-138.212c-9.754-12.672-24.521-20.548-40.488-21.588-1.199-0.101-2.399-0.144-3.598-0.144zM608.163 155.102c-3.699 0-7.398 1.416-10.216 4.234l-372.328 372.314c-5.65 5.65-5.65 14.782 0 20.432s14.782 5.65 20.432 0l372.343-372.328c5.65-5.65 5.65-14.782 0-20.432-2.832-2.803-6.531-4.219-10.23-4.219zM382.486 621.398c-34.737 0-67.394 13.525-91.959 38.090s-38.104 57.207-38.104 91.959c0 34.737 13.539 67.394 38.104 91.959s57.221 38.090 91.959 38.090 67.394-13.525 91.959-38.090c50.704-50.704 50.704-133.213 0-183.917-24.565-24.565-57.221-38.090-91.959-38.090zM382.486 852.58c-27.021 0-52.409-10.519-71.527-29.622-19.103-19.103-29.637-44.505-29.637-71.527s10.534-52.409 29.637-71.527 44.505-29.622 71.527-29.622 52.409 10.519 71.527 29.622c39.434 39.434 39.434 103.605 0 143.039-19.117 19.117-44.52 29.637-71.527 29.637zM323.647 732.791c-7.514 0-13.843 5.809-14.406 13.409-1.532 21.256 6.242 42.092 21.313 57.163 12.658 12.658 29.478 20.259 47.352 21.371 7.918 0.535 14.826-5.549 15.317-13.525 0.491-7.962-5.563-14.826-13.525-15.317-10.837-0.665-21.039-5.274-28.697-12.947-9.147-9.147-13.857-21.761-12.933-34.651 0.578-7.962-5.419-14.869-13.381-15.447-0.347-0.043-0.694-0.058-1.040-0.058z" />
<glyph unicode="&#xe603;" d="M235.055 57.899c-6.921 0-13.048 5-14.233 12.051-11.184 66.599-63.478 118.922-130.092 130.178-7.861 1.329-13.164 8.785-11.834 16.646 1.344 7.861 8.655 13.265 16.661 11.834 78.737-13.294 140.539-75.139 153.775-153.876 1.329-7.861-3.988-15.317-11.849-16.646-0.838-0.13-1.647-0.188-2.428-0.188zM789.147 57.899c-0.795 0-1.589 0.058-2.413 0.202-7.861 1.329-13.178 8.771-11.849 16.646 13.222 78.737 75.009 140.582 153.76 153.876 7.962 1.431 15.331-3.974 16.661-11.834s-3.974-15.331-11.834-16.646c-66.614-11.256-118.907-63.565-130.077-130.178-1.185-7.066-7.312-12.066-14.248-12.066zM93.115 551.62c-6.921 0-13.034 4.985-14.233 12.037-1.329 7.861 3.974 15.331 11.834 16.646 66.614 11.256 118.907 63.565 130.092 130.178 1.315 7.875 8.627 13.222 16.646 11.863 7.861-1.329 13.178-8.771 11.849-16.646-13.236-78.751-75.023-140.582-153.775-153.876-0.795-0.144-1.618-0.202-2.413-0.202zM931.073 551.62c-0.795 0-1.604 0.058-2.428 0.202-78.737 13.294-140.539 75.139-153.76 153.876-1.329 7.861 3.988 15.317 11.849 16.646 7.962 1.358 15.331-3.988 16.646-11.863 11.17-66.599 63.464-118.922 130.077-130.178 7.861-1.329 13.164-8.785 11.834-16.646-1.185-7.052-7.297-12.037-14.219-12.037zM266.382 635.891c-3.901 0-7.514 1.445-10.259 4.19-2.601 2.745-4.19 6.358-4.19 10.259 0 3.757 1.589 7.514 4.19 10.115 5.346 5.491 15.028 5.491 20.519 0.144 2.615-2.745 4.19-6.502 4.19-10.259 0-3.901-1.575-7.514-4.19-10.259-2.745-2.745-6.502-4.19-10.259-4.19zM688.606 650.341c0 7.947 6.488 14.45 14.45 14.45v0c7.947 0 14.45-6.502 14.45-14.45v0c0-7.947-6.502-14.45-14.45-14.45v0c-7.962 0-14.45 6.502-14.45 14.45zM633.985 650.341c0 7.947 6.502 14.45 14.45 14.45v0c7.947 0 14.45-6.502 14.45-14.45v0c0-7.947-6.502-14.45-14.45-14.45v0c-7.947 0-14.45 6.502-14.45 14.45zM579.365 650.341c0 7.947 6.502 14.45 14.45 14.45v0c8.106 0 14.594-6.502 14.594-14.45v0c0-7.947-6.488-14.45-14.594-14.45v0c-7.947 0-14.45 6.502-14.45 14.45zM524.889 650.341c0 7.947 6.343 14.45 14.45 14.45v0c7.947 0 14.45-6.502 14.45-14.45v0c0-7.947-6.502-14.45-14.45-14.45v0c-8.092 0-14.45 6.502-14.45 14.45zM470.269 650.341c0 7.947 6.502 14.45 14.45 14.45v0c7.947 0 14.45-6.502 14.45-14.45v0c0-7.947-6.502-14.45-14.45-14.45v0c-7.947 0-14.45 6.502-14.45 14.45zM415.649 650.341c0 7.947 6.502 14.45 14.45 14.45v0c7.947 0 14.45-6.502 14.45-14.45v0c0-7.947-6.502-14.45-14.45-14.45v0c-7.947 0-14.45 6.502-14.45 14.45zM361.028 650.341c0 7.947 6.488 14.45 14.45 14.45v0c8.092 0 14.45-6.502 14.45-14.45v0c0-7.947-6.358-14.45-14.45-14.45v0c-7.947 0-14.45 6.502-14.45 14.45zM306.553 650.341c0 7.947 6.358 14.45 14.45 14.45v0c7.947 0 14.45-6.502 14.45-14.45v0c0-7.947-6.502-14.45-14.45-14.45v0c-8.092 0-14.45 6.502-14.45 14.45zM757.676 635.891c-3.757 0-7.514 1.445-10.259 4.19-2.731 2.745-4.19 6.358-4.19 10.259 0 3.757 1.589 7.514 4.19 10.115 5.346 5.491 15.028 5.491 20.519 0 2.615-2.601 4.19-6.358 4.19-10.115s-1.575-7.514-4.19-10.259c-2.745-2.745-6.502-4.19-10.259-4.19zM150.784 505.843c-3.901 0-7.514 1.445-10.259 4.19-2.731 2.745-4.19 6.358-4.19 10.259 0 3.757 1.459 7.514 4.19 10.115 5.346 5.346 15.028 5.491 20.519 0 2.615-2.601 4.19-6.358 4.19-10.115 0-3.901-1.575-7.514-4.19-10.259-2.745-2.745-6.502-4.19-10.259-4.19zM136.334 312.215c0 7.947 6.502 14.45 14.45 14.45v0c7.962 0 14.45-6.502 14.45-14.45v0c0-8.092-6.488-14.45-14.45-14.45v0c-7.947 0-14.45 6.358-14.45 14.45zM136.334 364.234c0 7.947 6.502 14.45 14.45 14.45v0c7.962 0 14.45-6.502 14.45-14.45v0c0-7.947-6.488-14.45-14.45-14.45v0c-7.947 0-14.45 6.502-14.45 14.45zM136.334 416.254c0 7.947 6.502 14.45 14.45 14.45v0c7.962 0 14.45-6.502 14.45-14.45v0c0-8.092-6.488-14.45-14.45-14.45v0c-7.947 0-14.45 6.358-14.45 14.45zM136.334 468.273c0 7.947 6.502 14.45 14.45 14.45v0c7.962 0 14.45-6.502 14.45-14.45v0c0-7.947-6.488-14.45-14.45-14.45v0c-7.947 0-14.45 6.502-14.45 14.45zM150.784 245.746c-3.901 0-7.514 1.445-10.259 4.19-2.731 2.745-4.19 6.358-4.19 10.259 0 3.757 1.459 7.514 4.19 10.115 5.346 5.346 15.028 5.491 20.519 0 2.615-2.601 4.19-6.358 4.19-10.115 0-3.901-1.575-7.514-4.19-10.259-2.745-2.745-6.502-4.19-10.259-4.19zM873.274 505.843c-3.901 0-7.644 1.445-10.259 4.19-2.601 2.601-4.19 6.358-4.19 10.259 0 3.757 1.459 7.514 4.19 10.259 5.346 5.202 15.028 5.346 20.374 0 2.745-2.745 4.335-6.502 4.335-10.259s-1.575-7.514-4.19-10.259c-2.745-2.745-6.502-4.19-10.259-4.19zM858.824 312.215c0 7.947 6.502 14.45 14.45 14.45v0c7.962 0 14.45-6.502 14.45-14.45v0c0-8.092-6.488-14.45-14.45-14.45v0c-7.947 0-14.45 6.358-14.45 14.45zM858.824 364.234c0 7.947 6.502 14.45 14.45 14.45v0c7.962 0 14.45-6.502 14.45-14.45v0c0-8.092-6.488-14.45-14.45-14.45v0c-7.947 0-14.45 6.358-14.45 14.45zM858.824 416.254c0 7.947 6.502 14.45 14.45 14.45v0c7.962 0 14.45-6.502 14.45-14.45v0c0-7.947-6.488-14.45-14.45-14.45v0c-7.947 0-14.45 6.502-14.45 14.45zM858.824 468.273c0 7.947 6.502 14.45 14.45 14.45v0c7.962 0 14.45-6.502 14.45-14.45v0c0-7.947-6.488-14.45-14.45-14.45v0c-7.947 0-14.45 6.502-14.45 14.45zM873.274 245.746c-3.901 0-7.514 1.445-10.259 4.19-2.601 2.601-4.19 6.358-4.19 10.259 0 3.757 1.459 7.514 4.19 10.259 5.346 5.202 15.028 5.346 20.519 0 2.615-2.745 4.19-6.502 4.19-10.259s-1.575-7.514-4.19-10.259c-2.745-2.745-6.502-4.19-10.259-4.19zM266.382 115.698c-3.757 0-7.514 1.445-10.259 4.19-2.601 2.745-4.19 6.358-4.19 10.259 0 3.757 1.589 7.514 4.19 10.115 5.346 5.491 15.028 5.491 20.519 0 2.615-2.601 4.19-6.358 4.19-10.115 0-3.901-1.575-7.514-4.19-10.259-2.745-2.745-6.502-4.19-10.259-4.19zM688.606 130.148c0 7.947 6.488 14.45 14.45 14.45v0c7.947 0 14.45-6.502 14.45-14.45v0c0-8.092-6.502-14.45-14.45-14.45v0c-7.962 0-14.45 6.358-14.45 14.45zM633.985 130.148c0 7.947 6.502 14.45 14.45 14.45v0c7.947 0 14.45-6.502 14.45-14.45v0c0-8.092-6.502-14.45-14.45-14.45v0c-7.947 0-14.45 6.358-14.45 14.45zM579.365 130.148c0 7.947 6.502 14.45 14.45 14.45v0c8.106 0 14.594-6.502 14.594-14.45v0c0-8.092-6.488-14.45-14.594-14.45v0c-7.947 0-14.45 6.358-14.45 14.45zM524.889 130.148c0 7.947 6.343 14.45 14.45 14.45v0c7.947 0 14.45-6.502 14.45-14.45v0c0-8.092-6.502-14.45-14.45-14.45v0c-8.092 0-14.45 6.358-14.45 14.45zM470.269 130.148c0 7.947 6.502 14.45 14.45 14.45v0c7.947 0 14.45-6.502 14.45-14.45v0c0-8.092-6.502-14.45-14.45-14.45v0c-7.947 0-14.45 6.358-14.45 14.45zM415.649 130.148c0 7.947 6.502 14.45 14.45 14.45v0c7.947 0 14.45-6.502 14.45-14.45v0c0-8.092-6.502-14.45-14.45-14.45v0c-7.947 0-14.45 6.358-14.45 14.45zM361.028 130.148c0 7.947 6.488 14.45 14.45 14.45v0c8.092 0 14.45-6.502 14.45-14.45v0c0-8.092-6.358-14.45-14.45-14.45v0c-7.947 0-14.45 6.358-14.45 14.45zM306.553 130.148c0 7.947 6.358 14.45 14.45 14.45v0c7.947 0 14.45-6.502 14.45-14.45v0c0-8.092-6.502-14.45-14.45-14.45v0c-8.092 0-14.45 6.358-14.45 14.45zM757.676 115.698c-3.757 0-7.514 1.445-10.259 4.19-2.731 2.745-4.19 6.358-4.19 10.259 0 3.757 1.459 7.514 4.19 10.115 5.491 5.491 15.028 5.491 20.519 0.144 2.615-2.745 4.19-6.502 4.19-10.259s-1.575-7.514-4.19-10.259c-2.745-2.745-6.502-4.19-10.259-4.19zM873.26 57.855h-722.49c-39.838 0-72.249 32.411-72.249 72.249v520.193c0 39.838 32.411 72.249 72.249 72.249h722.49c39.838 0 72.249-32.411 72.249-72.249v-520.193c0-39.838-32.425-72.249-72.249-72.249zM150.769 693.647c-23.9 0-43.349-19.449-43.349-43.349v-520.193c0-23.9 19.449-43.349 43.349-43.349h722.49c23.9 0 43.349 19.449 43.349 43.349v520.193c0 23.9-19.449 43.349-43.349 43.349h-722.49zM627.613 693.647c-7.991 0-14.45 6.474-14.45 14.45 0 55.776-45.387 101.149-101.149 101.149s-101.149-45.372-101.149-101.149c0-7.976-6.459-14.45-14.45-14.45s-14.45 6.474-14.45 14.45c0 71.7 58.334 130.048 130.048 130.048s130.048-58.348 130.048-130.048c0-7.976-6.474-14.45-14.45-14.45z" />
<glyph unicode="&#xe604;" d="M512 187.903c-143.414 0-260.097 116.682-260.097 260.097s116.682 260.097 260.097 260.097 260.097-116.682 260.097-260.097-116.682-260.097-260.097-260.097zM512 679.197c-127.476 0-231.197-103.721-231.197-231.197s103.721-231.197 231.197-231.197 231.197 103.721 231.197 231.197-103.721 231.197-231.197 231.197zM324.153 433.55c-7.976 0-14.45 6.474-14.45 14.45 0 111.553 90.745 202.297 202.297 202.297 7.976 0 14.45-6.474 14.45-14.45s-6.474-14.45-14.45-14.45c-95.614 0-173.398-77.783-173.398-173.398 0-7.976-6.474-14.45-14.45-14.45zM512 43.405c-4.985 0-9.624 2.572-12.253 6.791-44.982 72.018-101.625 86.786-176.028 47.164-4.407-2.341-9.696-2.24-14.016 0.246-4.32 2.5-7.037 7.037-7.225 12.022-2.948 84.965-43.899 125.916-128.863 128.863-4.985 0.173-9.522 2.904-12.022 7.225-2.485 4.32-2.587 9.609-0.246 14.016 39.939 75.052 24.955 130.987-47.164 176.028-4.219 2.644-6.791 7.268-6.791 12.253s2.572 9.624 6.791 12.253c72.119 45.040 87.103 100.975 47.164 176.028-2.341 4.407-2.254 9.696 0.246 14.016s7.037 7.037 12.022 7.225c84.965 2.948 125.916 43.899 128.863 128.863 0.173 4.985 2.904 9.522 7.225 12.022 4.306 2.485 9.609 2.587 14.016 0.246 74.431-39.607 131.074-24.839 176.028 47.164 5.274 8.453 19.233 8.453 24.507 0 28.827-46.153 62.221-68.593 102.102-68.593v0c22.325 0 47.208 7.21 73.925 21.429 4.407 2.341 9.71 2.254 14.016-0.246 4.32-2.5 7.037-7.037 7.225-12.022 2.948-84.965 43.899-125.916 128.863-128.863 4.985-0.173 9.522-2.904 12.022-7.225 2.485-4.32 2.587-9.609 0.246-14.016-39.925-75.067-24.94-131.002 47.164-176.028 4.219-2.644 6.791-7.268 6.791-12.253s-2.572-9.624-6.791-12.253c-72.105-45.026-87.089-100.961-47.164-176.028 2.341-4.407 2.254-9.696-0.246-14.016s-7.037-7.037-12.022-7.225c-84.965-2.948-125.916-43.899-128.863-128.863-0.173-4.985-2.904-9.522-7.225-12.022-4.306-2.471-9.609-2.572-14.016-0.246-74.402 39.607-131.045 24.839-176.028-47.164-2.63-4.219-7.268-6.791-12.253-6.791zM397.644 147.69c44.13 0 82.523-21.588 114.356-64.215 47.236 63.232 109.226 80.168 182.27 48.826 9.392 78.361 55.068 124.023 133.43 133.415-31.038 72.567-14.32 134.961 48.84 182.27-63.16 47.309-79.879 109.703-48.84 182.27-78.361 9.392-124.037 55.068-133.43 133.415-23.799-10.216-46.586-15.389-67.914-15.389 0 0 0 0 0 0-44.13 0-82.523 21.588-114.356 64.215-47.208-63.247-109.197-80.196-182.27-48.826-9.392-78.361-55.068-124.023-133.43-133.415 31.053-72.567 14.349-134.947-48.84-182.27 63.189-47.323 79.893-109.703 48.84-182.27 78.361-9.392 124.037-55.068 133.43-133.415 23.813 10.23 46.572 15.389 67.914 15.389z" />
<glyph unicode="&#xe605;" d="M365.731 722.975c0 33.666 21.394 59.002 40.646 59.002h162.486v178.023h-162.486c-134.441 0-232.409-114.742-232.409-255.94v-98.414h-173.967v-167.328h173.967v-502.313h191.76v502.313h172.507l30.738 167.328h-203.241v117.33z" horiz-adv-x="569" />
<glyph unicode="&#xe606;" d="M910.233 960h-796.466c-62.564 0-113.767-51.2-113.767-113.767v-796.466c0-62.567 51.203-113.767 113.767-113.767h796.466c62.571 0 113.767 51.203 113.767 113.767v796.466c0.003 62.567-51.197 113.767-113.767 113.767zM726.939 816.539c0 16.996 13.827 30.823 30.823 30.823h122.781c16.996 0 30.823-13.827 30.823-30.823v-122.777c0-16.896-13.827-30.719-30.823-30.719h-122.781c-16.896 0-30.719 13.824-30.823 30.719v122.777zM512 652.8c113.048 0 204.8-91.749 204.8-204.8s-91.752-204.797-204.8-204.797-204.797 91.749-204.797 204.797 91.749 204.8 204.797 204.8zM921.6 89.903c0-28.462-23.037-51.506-51.403-51.506h-716.291c-28.466 0-51.506 23.040-51.506 51.506v409.297h107.42c-3.175-16.586-5.020-33.688-5.020-51.2 0-169.674 137.526-307.203 307.2-307.203 169.677 0 307.2 137.53 307.2 307.203 0 17.512-1.844 34.614-5.016 51.2h107.416v-409.297z" />
<glyph unicode="&#xe607;" d="M393.76 123.248c-16.963 10.132-28.528 23.454-34.696 40.417-6.276 16.745-9.359 54.849-9.359 114.217v262.694h240.11v160.589h-240.11v258.835h-143.955c-6.502-52.648-18.284-96.373-35.466-130.518-17.074-34.256-39.873-63.446-68.183-87.784-28.309-24.561-62.558-43.285-102.102-56.393v-144.728h111.904v-359.282c0-46.705 4.848-82.389 14.539-107.171 9.692-24.561 27.095-48.022 52.207-69.726 25.112-21.915 55.401-38.771 90.978-50.549 35.573-11.79 76.438-17.844 122.699-17.844 40.639 0 78.533 4.293 113.559 12.445 35.026 8.478 74.126 22.795 117.415 43.504h0.107v161.695c-50.664-33.819-101.55-50.783-152.881-50.783-28.635 0-54.298 6.831-76.768 20.383z" horiz-adv-x="623" />
<glyph unicode="&#xe608;" d="M948.109 3.372c-7.518 0-15.027 2.779-20.878 8.337l-869.055 825.471c-12.147 11.53-12.632 30.72-1.101 42.857 11.54 12.136 30.73 12.632 42.867 1.101l848.097-805.564 845.005 808.646c12.096 11.581 31.286 11.156 42.867-0.94s11.156-31.286-0.94-42.867l-865.892-828.634c-5.871-5.598-13.42-8.408-20.968-8.408z" horiz-adv-x="1893" />
<glyph unicode="&#xe97c;" d="M512 656.904c-32.964 0-59.686 26.724-59.686 59.686v179.060c0 32.964 26.722 59.686 59.686 59.686 32.962 0 59.688-26.722 59.688-59.686v-179.060c0-32.964-26.726-59.686-59.688-59.686zM512-36.956c-20.602 0-37.304 16.702-37.304 37.304v179.060c0 20.602 16.702 37.304 37.304 37.304 20.604 0 37.304-16.704 37.304-37.304v-179.060c0-20.602-16.7-37.304-37.304-37.304zM377.756 624.64c-19.34 0-38.146 10.034-48.512 27.988l-89.53 155.070c-15.452 26.764-6.282 60.986 20.482 76.438 26.762 15.45 60.986 6.284 76.438-20.482l89.53-155.072c15.452-26.764 6.282-60.986-20.482-76.438-8.81-5.084-18.432-7.504-27.926-7.504zM735.856 26.744c-11.602 0-22.886 6.022-29.108 16.792l-89.53 155.070c-9.27 16.056-3.77 36.592 12.29 45.864 16.056 9.264 36.59 3.77 45.864-12.292l89.532-155.068c9.27-16.058 3.768-36.592-12.292-45.864-5.286-3.048-11.060-4.502-16.756-4.502zM279.344 530.060c-8.86 0-17.838 2.256-26.064 7.006l-155.072 89.53c-24.978 14.422-33.538 46.362-19.116 71.342 14.42 24.978 46.364 33.538 71.342 19.116l155.070-89.53c24.98-14.422 33.538-46.362 19.116-71.34-9.668-16.756-27.226-26.124-45.276-26.124zM899.648 194.326c-5.064 0-10.196 1.29-14.894 4.004l-155.068 89.53c-14.274 8.24-19.164 26.494-10.924 40.768 8.242 14.276 26.496 19.166 40.766 10.924l155.070-89.532c14.274-8.24 19.164-26.492 10.924-40.766-5.53-9.574-15.562-14.928-25.874-14.928zM243.41 399.504h-179.060c-26.784 0-48.496 21.712-48.496 48.496s21.712 48.496 48.496 48.496h179.060c26.784 0 48.496-21.712 48.496-48.496s-21.712-48.496-48.496-48.496zM959.65 418.156c-0.002 0 0 0 0 0h-179.060c-16.482 0.002-29.844 13.364-29.844 29.844s13.364 29.844 29.844 29.844c0.002 0 0 0 0 0h179.060c16.482 0 29.844-13.362 29.844-29.844 0-16.48-13.364-29.844-29.844-29.844zM124.366 179.402c-15.472 0-30.518 8.028-38.81 22.39-12.362 21.41-5.026 48.79 16.384 61.148l155.072 89.532c21.41 12.368 48.79 5.028 61.15-16.384 12.362-21.412 5.026-48.79-16.384-61.15l-155.072-89.53c-7.050-4.070-14.748-6.006-22.34-6.006zM744.632 552.448c-10.314 0-20.346 5.352-25.874 14.926-8.24 14.274-3.35 32.526 10.924 40.768l155.070 89.528c14.272 8.236 32.526 3.352 40.768-10.922 8.24-14.274 3.35-32.526-10.924-40.768l-155.070-89.528c-4.7-2.714-9.83-4.004-14.894-4.004zM288.136 19.284c-6.962 0-14.016 1.774-20.48 5.504-19.626 11.332-26.35 36.428-15.020 56.054l89.53 155.070c11.33 19.628 36.426 26.352 56.054 15.022 19.626-11.332 26.35-36.43 15.020-56.054l-89.53-155.072c-7.598-13.166-21.392-20.524-35.574-20.524zM646.266 650.758c-5.062 0-10.196 1.29-14.894 4.002-14.274 8.242-19.164 26.494-10.924 40.766l89.534 155.070c8.24 14.274 26.492 19.166 40.766 10.922 14.274-8.242 19.164-26.494 10.924-40.766l-89.532-155.070c-5.53-9.57-15.56-14.924-25.874-14.924z" />
<glyph unicode="&#xe97f;" d="M384 832c0 70.692 57.308 128 128 128s128-57.308 128-128c0-70.692-57.308-128-128-128s-128 57.308-128 128zM790.994 448c0 0 0 0 0 0 0 57.993 47.013 105.006 105.006 105.006s105.006-47.013 105.006-105.006c0 0 0 0 0 0 0-57.993-47.013-105.006-105.006-105.006s-105.006 47.013-105.006 105.006zM688.424 176.47c0 52.526 42.58 95.106 95.106 95.106s95.106-42.58 95.106-95.106c0-52.526-42.58-95.106-95.106-95.106s-95.106 42.58-95.106 95.106zM425.862 64c0 47.573 38.565 86.138 86.138 86.138s86.138-38.565 86.138-86.138c0-47.573-38.565-86.138-86.138-86.138s-86.138 38.565-86.138 86.138zM162.454 176.47c0 43.088 34.93 78.018 78.018 78.018s78.018-34.93 78.018-78.018c0-43.088-34.93-78.018-78.018-78.018s-78.018 34.93-78.018 78.018zM57.338 448c0 39.026 31.636 70.662 70.662 70.662s70.662-31.636 70.662-70.662c0-39.026-31.636-70.662-70.662-70.662s-70.662 31.636-70.662 70.662zM176.472 719.528c0 0 0 0 0 0 0 35.346 28.654 64 64 64s64-28.654 64-64c0 0 0 0 0 0 0-35.346-28.654-64-64-64s-64 28.654-64 64zM899.464 719.528c0-64.024-51.906-115.934-115.936-115.934-64.024 0-115.936 51.91-115.936 115.934 0 64.032 51.912 115.934 115.936 115.934 64.030 0 115.936-51.902 115.936-115.934z" />
<glyph unicode="&#xe9bd;" d="M64 768h896v-192h-896zM64 512h896v-192h-896zM64 256h896v-192h-896z" />
<glyph unicode="&#xe9da;" d="M755.188 896c-107.63 0-200.258-87.554-243.164-179-42.938 91.444-135.578 179-243.216 179-148.382 0-268.808-120.44-268.808-268.832 0-301.846 304.5-380.994 512.022-679.418 196.154 296.576 511.978 387.206 511.978 679.418 0 148.392-120.43 268.832-268.812 268.832z" />
<glyph unicode="&#xe9db;" d="M755.188 896c148.382 0 268.812-120.44 268.812-268.832 0-292.21-315.824-382.842-511.978-679.418-207.522 298.424-512.022 377.572-512.022 679.418 0 148.392 120.426 268.832 268.808 268.832 60.354 0 115.99-27.53 160.796-67.834l-77.604-124.166 224-128-128-320 352 384-224 128 61.896 92.846c35.42 21.768 75.21 35.154 117.292 35.154z" />
<glyph unicode="&#xe9df;" d="M512-64c282.77 0 512 229.23 512 512s-229.23 512-512 512-512-229.23-512-512 229.23-512 512-512zM512 864c229.75 0 416-186.25 416-416s-186.25-416-416-416-416 186.25-416 416 186.25 416 416 416zM512 361.24c115.95 0 226.23 30.806 320 84.92-14.574-178.438-153.128-318.16-320-318.16-166.868 0-305.422 139.872-320 318.304 93.77-54.112 204.050-85.064 320-85.064zM256 608c0 53.019 28.654 96 64 96s64-42.981 64-96c0-53.019-28.654-96-64-96s-64 42.981-64 96zM640 608c0 53.019 28.654 96 64 96s64-42.981 64-96c0-53.019-28.654-96-64-96s-64 42.981-64 96z" />
<glyph unicode="&#xe9e5;" d="M512-64c282.77 0 512 229.23 512 512s-229.23 512-512 512-512-229.23-512-512 229.23-512 512-512zM512 864c229.75 0 416-186.25 416-416s-186.25-416-416-416-416 186.25-416 416 186.25 416 416 416zM256 640c0 35.346 28.654 64 64 64s64-28.654 64-64c0-35.346-28.654-64-64-64s-64 28.654-64 64zM640 640c0 35.346 28.654 64 64 64s64-28.654 64-64c0-35.346-28.654-64-64-64s-64 28.654-64 64zM319.902 179.26l-82.328 49.396c55.962 93.070 157.916 155.344 274.426 155.344 116.508 0 218.462-62.274 274.426-155.344l-82.328-49.396c-39.174 65.148-110.542 108.74-192.098 108.74-81.558 0-152.924-43.592-192.098-108.74z" />
<glyph unicode="&#xe9e9;" d="M512-64c282.77 0 512 229.23 512 512s-229.23 512-512 512-512-229.23-512-512 229.23-512 512-512zM512 864c229.75 0 416-186.25 416-416s-186.25-416-416-416-416 186.25-416 416 186.25 416 416 416zM192 448v-64c0-140.8 115.2-256 256-256h128c140.8 0 256 115.2 256 256v64h-640zM384 203.012c-26.538 9.458-50.924 24.822-71.544 45.446-36.406 36.402-56.456 84.54-56.456 135.542h128v-180.988zM576 192h-128v192h128v-192zM711.544 248.458c-20.624-20.624-45.010-35.988-71.544-45.446v180.988h128c0-51.002-20.048-99.14-56.456-135.542zM225.352 576c0.002 0 0 0 0 0 9.768 0 18.108 7.056 19.724 16.69 6.158 36.684 37.668 63.31 74.924 63.31s68.766-26.626 74.924-63.31c1.616-9.632 9.956-16.69 19.722-16.69 9.768 0 18.108 7.056 19.724 16.688 1.082 6.436 1.628 12.934 1.628 19.312 0 63.962-52.038 116-116 116s-116-52.038-116-116c0-6.378 0.548-12.876 1.628-19.312 1.62-9.632 9.96-16.688 19.726-16.688zM609.352 576c0.002 0 0 0 0 0 9.77 0 18.112 7.056 19.724 16.69 6.158 36.684 37.668 63.31 74.924 63.31s68.766-26.626 74.924-63.31c1.616-9.632 9.958-16.69 19.722-16.69s18.108 7.056 19.722 16.688c1.082 6.436 1.628 12.934 1.628 19.312 0 63.962-52.038 116-116 116s-116-52.038-116-116c0-6.378 0.544-12.876 1.626-19.312 1.624-9.632 9.964-16.688 19.73-16.688z" />
<glyph unicode="&#xea07;" d="M512 867.226l429.102-855.226h-858.206l429.104 855.226zM512 960c-22.070 0-44.14-14.882-60.884-44.648l-437.074-871.112c-33.486-59.532-5-108.24 63.304-108.24h869.308c68.3 0 96.792 48.708 63.3 108.24h0.002l-437.074 871.112c-16.742 29.766-38.812 44.648-60.882 44.648v0zM576 128c0-35.346-28.654-64-64-64s-64 28.654-64 64c0 35.346 28.654 64 64 64s64-28.654 64-64zM512 256c-35.346 0-64 28.654-64 64v192c0 35.346 28.654 64 64 64s64-28.654 64-64v-192c0-35.346-28.654-64-64-64z" />
<glyph unicode="&#xea0f;" d="M1014.662 137.34c-0.004 0.004-0.008 0.008-0.012 0.010l-310.644 310.65 310.644 310.65c0.004 0.004 0.008 0.006 0.012 0.010 3.344 3.346 5.762 7.254 7.312 11.416 4.246 11.376 1.824 24.682-7.324 33.83l-146.746 146.746c-9.148 9.146-22.45 11.566-33.828 7.32-4.16-1.55-8.070-3.968-11.418-7.31 0-0.004-0.004-0.006-0.008-0.010l-310.648-310.652-310.648 310.65c-0.004 0.004-0.006 0.006-0.010 0.010-3.346 3.342-7.254 5.76-11.414 7.31-11.38 4.248-24.682 1.826-33.83-7.32l-146.748-146.748c-9.148-9.148-11.568-22.452-7.322-33.828 1.552-4.16 3.97-8.072 7.312-11.416 0.004-0.002 0.006-0.006 0.010-0.010l310.65-310.648-310.65-310.652c-0.002-0.004-0.006-0.006-0.008-0.010-3.342-3.346-5.76-7.254-7.314-11.414-4.248-11.376-1.826-24.682 7.322-33.83l146.748-146.746c9.15-9.148 22.452-11.568 33.83-7.322 4.16 1.552 8.070 3.97 11.416 7.312 0.002 0.004 0.006 0.006 0.010 0.010l310.648 310.65 310.648-310.65c0.004-0.002 0.008-0.006 0.012-0.008 3.348-3.344 7.254-5.762 11.414-7.314 11.378-4.246 24.684-1.826 33.828 7.322l146.746 146.748c9.148 9.148 11.57 22.454 7.324 33.83-1.552 4.16-3.97 8.068-7.314 11.414z" />
<glyph unicode="&#xf003;" d="M950.857 91.428v438.857q-18.286-20.571-39.429-37.714-153.143-117.714-243.429-193.143-29.143-24.571-47.429-38.286t-49.429-27.714-58.571-14h-1.143q-27.429 0-58.571 14t-49.429 27.714-47.429 38.286q-90.286 75.429-243.429 193.143-21.143 17.143-39.429 37.714v-438.857q0-7.429 5.429-12.857t12.857-5.429h841.143q7.429 0 12.857 5.429t5.429 12.857zM950.857 692v14t-0.286 7.429-1.714 7.143-3.143 5.143-5.143 4.286-8 1.429h-841.143q-7.429 0-12.857-5.429t-5.429-12.857q0-96 84-162.286 110.286-86.857 229.143-181.143 3.429-2.857 20-16.857t26.286-21.429 25.429-18 28.857-15.714 24.571-5.143h1.143q11.429 0 24.571 5.143t28.857 15.714 25.429 18 26.286 21.429 20 16.857q118.857 94.286 229.143 181.143 30.857 24.571 57.429 66t26.571 75.143zM1024 713.143v-621.714q0-37.714-26.857-64.571t-64.571-26.857h-841.143q-37.714 0-64.571 26.857t-26.857 64.571v621.714q0 37.714 26.857 64.571t64.571 26.857h841.143q37.714 0 64.571-26.857t26.857-64.571z" />
<glyph unicode="&#xf004;" d="M512 0q-14.857 0-25.143 10.286l-356.571 344q-5.714 4.571-15.714 14.857t-31.714 37.429-38.857 55.714-30.571 69.143-13.429 78.857q0 125.714 72.571 196.571t200.571 70.857q35.429 0 72.286-12.286t68.571-33.143 54.571-39.143 43.429-38.857q20.571 20.571 43.429 38.857t54.571 39.143 68.571 33.143 72.286 12.286q128 0 200.571-70.857t72.571-196.571q0-126.286-130.857-257.143l-356-342.857q-10.286-10.286-25.143-10.286z" />
<glyph unicode="&#xf006;" d="M649.714 377.143l174.857 169.714-241.143 35.429-108 218.286-108-218.286-241.143-35.429 174.857-169.714-41.714-240.571 216 113.714 215.429-113.714zM950.857 581.143q0-12.571-14.857-27.429l-207.429-202.286 49.143-285.714q0.571-4 0.571-11.429 0-28.571-23.429-28.571-10.857 0-22.857 6.857l-256.571 134.857-256.571-134.857q-12.571-6.857-22.857-6.857-12 0-18 8.286t-6 20.286q0 3.429 1.143 11.429l49.143 285.714-208 202.286q-14.286 15.429-14.286 27.429 0 21.143 32 26.286l286.857 41.714 128.571 260q10.857 23.429 28 23.429t28-23.429l128.571-260 286.857-41.714q32-5.143 32-26.286z" horiz-adv-x="951" />
<glyph unicode="&#xf00c;" d="M954.857 627.428q0-22.857-16-38.857l-491.429-491.429q-16-16-38.857-16t-38.857 16l-284.571 284.571q-16 16-16 38.857t16 38.857l77.714 77.714q16 16 38.857 16t38.857-16l168-168.571 374.857 375.429q16 16 38.857 16t38.857-16l77.714-77.714q16-16 16-38.857z" />
<glyph unicode="&#xf00d;" d="M741.714 195.428q0-22.857-16-38.857l-77.714-77.714q-16-16-38.857-16t-38.857 16l-168 168-168-168q-16-16-38.857-16t-38.857 16l-77.714 77.714q-16 16-16 38.857t16 38.857l168 168-168 168q-16 16-16 38.857t16 38.857l77.714 77.714q16 16 38.857 16t38.857-16l168-168 168 168q16 16 38.857 16t38.857-16l77.714-77.714q16-16 16-38.857t-16-38.857l-168-168 168-168q16-16 16-38.857z" horiz-adv-x="805" />
<glyph unicode="&#xf053;" d="M669.143 778.857l-303.429-303.429 303.429-303.429q10.857-10.857 10.857-25.714t-10.857-25.714l-94.857-94.857q-10.857-10.857-25.714-10.857t-25.714 10.857l-424 424q-10.857 10.857-10.857 25.714t10.857 25.714l424 424q10.857 10.857 25.714 10.857t25.714-10.857l94.857-94.857q10.857-10.857 10.857-25.714t-10.857-25.714z" horiz-adv-x="731" />
<glyph unicode="&#xf054;" d="M632.571 449.714l-424-424q-10.857-10.857-25.714-10.857t-25.714 10.857l-94.857 94.857q-10.857 10.857-10.857 25.714t10.857 25.714l303.429 303.429-303.429 303.429q-10.857 10.857-10.857 25.714t10.857 25.714l94.857 94.857q10.857 10.857 25.714 10.857t25.714-10.857l424-424q10.857-10.857 10.857-25.714t-10.857-25.714z" horiz-adv-x="731" />
<glyph unicode="&#xf077;" d="M961.714 190.286l-94.857-94.286q-10.857-10.857-25.714-10.857t-25.714 10.857l-303.429 303.429-303.429-303.429q-10.857-10.857-25.714-10.857t-25.714 10.857l-94.857 94.286q-10.857 10.857-10.857 26t10.857 26l424 423.429q10.857 10.857 25.714 10.857t25.714-10.857l424-423.429q10.857-10.857 10.857-26t-10.857-26z" />
<glyph unicode="&#xf078;" d="M961.714 489.143l-424-423.429q-10.857-10.857-25.714-10.857t-25.714 10.857l-424 423.429q-10.857 10.857-10.857 26t10.857 26l94.857 94.286q10.857 10.857 25.714 10.857t25.714-10.857l303.429-303.429 303.429 303.429q10.857 10.857 25.714 10.857t25.714-10.857l94.857-94.286q10.857-10.857 10.857-26t-10.857-26z" />
<glyph unicode="&#xf08a;" d="M950.857 610.286q0 46.286-12.286 81.714t-31.429 56.286-46.571 34-53.714 17.714-56 4.571-64-14.571-63.143-36.571-49.429-41.143-34.286-35.143q-10.286-12.571-28-12.571t-28 12.571q-13.714 16-34.286 35.143t-49.429 41.143-63.143 36.571-64 14.571-56-4.571-53.714-17.714-46.571-34-31.429-56.286-12.286-81.714q0-96 106.857-202.857l332-320 331.429 319.429q107.429 107.429 107.429 203.429zM1024 610.286q0-126.286-130.857-257.143l-356-342.857q-10.286-10.286-25.143-10.286t-25.143 10.286l-356.571 344q-5.714 4.571-15.714 14.857t-31.714 37.429-38.857 55.714-30.571 69.143-13.429 78.857q0 125.714 72.571 196.571t200.571 70.857q35.429 0 72.286-12.286t68.571-33.143 54.571-39.143 43.429-38.857q20.571 20.571 43.429 38.857t54.571 39.143 68.571 33.143 72.286 12.286q128 0 200.571-70.857t72.571-196.571z" />
<glyph unicode="&#xf0c9;" d="M877.714 182.857v-73.143q0-14.857-10.857-25.714t-25.714-10.857h-804.571q-14.857 0-25.714 10.857t-10.857 25.714v73.143q0 14.857 10.857 25.714t25.714 10.857h804.571q14.857 0 25.714-10.857t10.857-25.714zM877.714 475.428v-73.143q0-14.857-10.857-25.714t-25.714-10.857h-804.571q-14.857 0-25.714 10.857t-10.857 25.714v73.143q0 14.857 10.857 25.714t25.714 10.857h804.571q14.857 0 25.714-10.857t10.857-25.714zM877.714 768v-73.143q0-14.857-10.857-25.714t-25.714-10.857h-804.571q-14.857 0-25.714 10.857t-10.857 25.714v73.143q0 14.857 10.857 25.714t25.714 10.857h804.571q14.857 0 25.714-10.857t10.857-25.714z" />
<glyph unicode="&#xf0e0;" d="M1024 545.143v-453.714q0-37.714-26.857-64.571t-64.571-26.857h-841.143q-37.714 0-64.571 26.857t-26.857 64.571v453.714q25.143-28 57.714-49.714 206.857-140.571 284-197.143 32.571-24 52.857-37.429t54-27.429 62.857-14h1.143q29.143 0 62.857 14t54 27.429 52.857 37.429q97.143 70.286 284.571 197.143 32.571 22.286 57.143 49.714zM1024 713.143q0-45.143-28-86.286t-69.714-70.286q-214.857-149.143-267.429-185.714-5.714-4-24.286-17.429t-30.857-21.714-29.714-18.571-32.857-15.429-28.571-5.143h-1.143q-13.143 0-28.571 5.143t-32.857 15.429-29.714 18.571-30.857 21.714-24.286 17.429q-52 36.571-149.714 104.286t-117.143 81.429q-35.429 24-66.857 66t-31.429 78q0 44.571 23.714 74.286t67.714 29.714h841.143q37.143 0 64.286-26.857t27.143-64.571z" />
<glyph unicode="&#xf104;" d="M358.286 640q0-7.429-5.714-13.143l-224.571-224.571 224.571-224.571q5.714-5.714 5.714-13.143t-5.714-13.143l-28.571-28.571q-5.714-5.714-13.143-5.714t-13.143 5.714l-266.286 266.286q-5.714 5.714-5.714 13.143t5.714 13.143l266.286 266.286q5.714 5.714 13.143 5.714t13.143-5.714l28.571-28.571q5.714-5.714 5.714-13.143z" horiz-adv-x="366" />
<glyph unicode="&#xf105;" d="M340 402.286q0-7.429-5.714-13.143l-266.286-266.286q-5.714-5.714-13.143-5.714t-13.143 5.714l-28.571 28.571q-5.714 5.714-5.714 13.143t5.714 13.143l224.571 224.571-224.571 224.571q-5.714 5.714-5.714 13.143t5.714 13.143l28.571 28.571q5.714 5.714 13.143 5.714t13.143-5.714l266.286-266.286q5.714-5.714 5.714-13.143z" horiz-adv-x="366" />
<glyph unicode="&#xf106;" d="M614.286 274.286q0-7.429-5.714-13.143l-28.571-28.571q-5.714-5.714-13.143-5.714t-13.143 5.714l-224.571 224.571-224.571-224.571q-5.714-5.714-13.143-5.714t-13.143 5.714l-28.571 28.571q-5.714 5.714-5.714 13.143t5.714 13.143l266.286 266.286q5.714 5.714 13.143 5.714t13.143-5.714l266.286-266.286q5.714-5.714 5.714-13.143z" horiz-adv-x="658" />
<glyph unicode="&#xf107;" d="M636.231 537.32q0-7.999-6.154-14.154l-286.77-286.77q-6.154-6.154-14.154-6.154t-14.154 6.154l-286.77 286.77q-6.154 6.154-6.154 14.154t6.154 14.154l30.769 30.769q6.154 6.154 14.154 6.154t14.154-6.154l241.846-241.846 241.846 241.846q6.154 6.154 14.154 6.154t14.154-6.154l30.769-30.769q6.154-6.154 6.154-14.154z" horiz-adv-x="658" />
<glyph unicode="&#xf118;" d="M648 336.571q-21.143-69.143-78.857-111.429t-130.286-42.286-130.286 42.286-78.857 111.429q-4.571 14.286 2.286 27.714t21.714 18q14.286 4.571 27.714-2.286t18-21.714q14.286-45.714 52.857-74t86.571-28.286 86.571 28.286 52.857 74q4.571 14.857 18.286 21.714t28 2.286 21.143-18 2.286-27.714zM365.714 585.143q0-30.286-21.429-51.714t-51.714-21.429-51.714 21.429-21.429 51.714 21.429 51.714 51.714 21.429 51.714-21.429 21.429-51.714zM658.286 585.143q0-30.286-21.429-51.714t-51.714-21.429-51.714 21.429-21.429 51.714 21.429 51.714 51.714 21.429 51.714-21.429 21.429-51.714zM804.571 438.857q0 74.286-29.143 142t-78 116.571-116.571 78-142 29.143-142-29.143-116.571-78-78-116.571-29.143-142 29.143-142 78-116.571 116.571-78 142-29.143 142 29.143 116.571 78 78 116.571 29.143 142zM877.714 438.857q0-119.429-58.857-220.286t-159.714-159.714-220.286-58.857-220.286 58.857-159.714 159.714-58.857 220.286 58.857 220.286 159.714 159.714 220.286 58.857 220.286-58.857 159.714-159.714 58.857-220.286z" />
<glyph unicode="&#xf119;" d="M648 248.571q4.571-14.286-2.286-27.714t-21.143-18-28 2.286-18.286 21.714q-14.286 45.714-52.857 74t-86.571 28.286-86.571-28.286-52.857-74q-4.571-14.857-18-21.714t-27.714-2.286q-14.857 4.571-21.714 18t-2.286 27.714q21.143 69.143 78.857 111.429t130.286 42.286 130.286-42.286 78.857-111.429zM365.714 585.143q0-30.286-21.429-51.714t-51.714-21.429-51.714 21.429-21.429 51.714 21.429 51.714 51.714 21.429 51.714-21.429 21.429-51.714zM658.286 585.143q0-30.286-21.429-51.714t-51.714-21.429-51.714 21.429-21.429 51.714 21.429 51.714 51.714 21.429 51.714-21.429 21.429-51.714zM804.571 438.857q0 74.286-29.143 142t-78 116.571-116.571 78-142 29.143-142-29.143-116.571-78-78-116.571-29.143-142 29.143-142 78-116.571 116.571-78 142-29.143 142 29.143 116.571 78 78 116.571 29.143 142zM877.714 438.857q0-119.429-58.857-220.286t-159.714-159.714-220.286-58.857-220.286 58.857-159.714 159.714-58.857 220.286 58.857 220.286 159.714 159.714 220.286 58.857 220.286-58.857 159.714-159.714 58.857-220.286z" />
</font>
</defs>
</svg>
