<?xml version="1.0" encoding="utf-8"?>
<!DOCTYPE svg PUBLIC "-//W3C//DTD SVG 1.1//EN" "http://www.w3.org/Graphics/SVG/1.1/DTD/svg11.dtd">
<svg version="1.1" id="HEADER_xA0_Imagen_1_" xmlns="http://www.w3.org/2000/svg" xmlns:xlink="http://www.w3.org/1999/xlink"
	 x="0px" y="0px" width="109px" height="70px" viewBox="0 0 244.197 157.145" enable-background="new 0 0 244.197 157.145"
	 xml:space="preserve">
<g>
	<path fill ="#EE5F5F" d="M167.457,27.433c5.784,9.023,16.68-2.119,9.31-9.31C170.313,11.829,163.361,21.012,167.457,27.433 M170.146,22.87
		c0.426-3.719,5.376-2.037,4.944,1.284C174.615,27.846,169.771,26.039,170.146,22.87"/>
	<path fill ="#EE5F5F" d="M241.687,49.997c-2.337-3.725-5.137-7.147-8.373-10.129c-1.511-1.391-9.852-6.38-6.876-9.184
		c0.815-0.769,7.906,1.677,5.192-2.39c-2.579-3.857-9.024-0.728-9.459,3.168c-0.464,4.015,3.125,7.091,5.759,9.486
		c3.732,3.397,7.597,7.096,9.332,11.978c1.443,4.062-0.052,8.484-3.386,11.143c-1.223,0.974-8.391,6.079-9.814,4.971
		c16.861-10.871-12.736-26.235-18.826-32.052c-2.14-2.042-5.638-5.112-5.007-8.479c0.748-3.99,5.334-0.143,6.479-2.901
		c1.4-3.382-4.28-3.919-6.184-3.521c-5.188,1.089-5.93,6.486-4.25,10.696c1.106,2.729,3.46,5.187,4.951,7.731
		c1.938,3.308,2.338,7.688,2.649,11.44c0.385,4.627,0.251,9.784-0.722,14.339c-0.931,4.363-3.13,8.991-7.833,10.176
		c-8.302,2.089-12.366-5.81-13.866-12.744c-0.93-4.217-1.564-8.51-2.098-12.791c-0.308-2.475,0-6.857-1.471-8.979
		c-2.805-4.045-5.433,1.772-5.192,4.079c0.522,5.013,1.298,9.999,1.364,15.049c0.096,7.057-0.493,18.682-6.713,23.46
		c-6,4.609-16.902-1.473-20.296-7.174c-3.321-5.579-0.668-15.489-0.758-21.687c-0.155-10.793-1.3-21.759-4.358-32.141
		c-2.261-7.672-6.348-18.596-13.957-22.527c-10.874-5.538-14.536,10.182-14.037,17.32c0.968,13.83,6.854,27.614,13.233,39.745
		c3.285,6.283,7.03,12.419,11.392,18.017c2.167,2.779,1.146,6.457,0.354,9.85c-0.335,1.434-2.677,5.43-2.521,6.678
		c-2.401-18.623-19.377-24.39-35.62-21.762c7.313-11.75,8.691-25.715,0.178-37.385c-3.468-4.75-8.504-7.979-14.326-8.929
		c-5.975-0.975-11.492,1.772-17.229,1.347c-0.75-2.501,3.261-5.197-0.443-7.678c-3.063-2.051-4.556,1.734-5.216,3.859
		c-0.896,3.181-0.051,5.276-3.211,6.875c-3.146,1.594-6.361,3.051-9.521,4.623c-16.099,8.012-30.08,22.64-39.154,37.985
		C2.666,87.101-2.974,105.92,1.714,123.828c4.619,17.648,17.063,31.881,36.057,33.342c17.02,1.31,31.534-8.547,37.038-24.55
		c2.757-8.013,3.212-16.643,3.004-25.052c-0.226-9.139-2.283-15.755,6.11-21.418c11.923-8.044,37.057-15.925,44.427,2.283
		c7.559,18.667-13.382,34.984-29.185,38.843c-4.156,1.016-10.31-0.039-14.013,1.699c-1.82,0.869-2.045,3.188-1.179,4.801
		c1.29,2.39,3.601,2.211,5.985,2.159c11.18-0.245,22.435-4.033,31.491-10.621c13.244-9.633,21.74-25.854,23.591-41.858
		c5.183,5.358,13.383,10.407,21.063,7.79c7.766-2.645,11.244-10.538,12.702-18.021c-0.311,1.541,2.542,4.771,3.396,5.788
		c2.911,3.461,7.193,4.901,11.677,4.623c6.407-0.397,11.086-5.773,13.104-11.443c1.963-5.509,2.217-11.567,1.866-17.355
		c-0.031-0.504-1.004-8.987-1.116-8.959c1.233-0.416,6.352,4.768,7.125,5.455c3.081,2.735,7.162,6.983,6.052,11.545
		c-1.067,4.34-5.551,5.938-9.468,4.713c-4.706-1.423-6.34,3.229-2.023,5.464C222.864,80.01,252.978,67.974,241.687,49.997
		 M71.111,115.028c-1.744,15.761-9.105,32.772-26.534,35.5c-18.356,2.872-33.919-11.333-37.194-28.73
		C0.563,85.944,31.709,49.813,62.186,35.751c0.136,8.371,0.452,16.494,1.761,24.793c0.666,4.243,1.467,8.465,2.396,12.657
		c0.656,2.951,3.926,8.962,2.86,11.976c-0.939,2.106-3.815,2.117-3.884,4.978c-0.104,4.467,5.31,3.18,5.48,4.743
		C71.526,101.465,71.841,108.452,71.111,115.028 M95.711,65.411c-2.188,3.42-5.462,8.329-9.266,10.035
		c-3.909,1.756-8.153,3.337-11.646,5.897c-2.855-9.31-4.437-19.29-5.388-28.956c-0.378-3.842-3.565-18.65,1.251-20.303
		c7.817-2.682,18.979-1.98,24.508,4.775C102.065,45.29,101.334,56.608,95.711,65.411 M140.509,68.462
		c-4.252-6.509-32.949-60.139-17.948-62.362c9.98-1.479,15.063,23.751,16.172,30.053c1.164,6.616,1.793,13.361,1.927,20.077
		C140.682,57.38,141.441,68.11,140.509,68.462"/>
</g>
</svg>
