<?xml version="1.0" encoding="utf-8"?>
<!-- Generator: Adobe Illustrator 15.0.0, SVG Export Plug-In . SVG Version: 6.00 Build 0)  -->
<!DOCTYPE svg PUBLIC "-//W3C//DTD SVG 1.1//EN" "http://www.w3.org/Graphics/SVG/1.1/DTD/svg11.dtd">
<svg version="1.1" id="Capa_1" xmlns="http://www.w3.org/2000/svg" xmlns:xlink="http://www.w3.org/1999/xlink" x="0px" y="0px"
	 width="297.641px" height="297.64px" viewBox="0 0 297.641 297.64" enable-background="new 0 0 297.641 297.64"
	 xml:space="preserve">
<path fill="#FFFFFF" d="M887.435,236.593c-4.584-2.738-7.709-6.338-9.376-10.922c-1.696-4.525-2.529-14.822-2.529-30.865v-70.988
	h64.885V80.422H875.53V10.477h-38.901c-1.757,14.227-4.941,26.043-9.584,35.27c-4.614,9.257-10.775,17.145-18.425,23.722
	c-7.649,6.637-16.905,11.697-27.591,15.239v39.11h30.24v97.089c0,12.621,1.31,22.264,3.929,28.961
	c2.619,6.637,7.322,12.977,14.108,18.842c6.786,5.922,14.971,10.477,24.585,13.66c9.613,3.186,20.656,4.822,33.157,4.822
	c10.982,0,21.222-1.16,30.687-3.363c9.465-2.291,20.031-6.16,31.729-11.756h0.029v-43.695
	c-13.691,9.139-27.442,13.723-41.313,13.723C900.442,242.101,893.506,240.255,887.435,236.593z"/>
<path fill="#FFFFFF" d="M1546.72,76.136c0-8.899,5.655-15.596,10.744-15.596h42.95V13.483h-42.95
	c-35.537,0-61.433,30.33-61.433,67.653v26.014h-45.985v44.23h45.985v132.777h50.688V151.38h45.599l8.125-44.23h-53.724V76.136z"/>
<g>
	<path fill="#FFFFFF" d="M264.572,0H33.068C14.883,0,0,14.882,0,33.068v231.504c0,18.186,14.883,33.068,33.068,33.068h231.504
		c18.187,0,33.068-14.883,33.068-33.068V33.068C297.641,14.882,282.759,0,264.572,0z M211.295,41.699
		c0-4.94,4.019-8.959,8.959-8.959h35.688c4.94,0,8.959,4.019,8.959,8.959v35.687c0,4.911-4.019,8.929-8.959,8.929h-35.688
		c-4.911,0-8.929-4.018-8.959-8.929V41.699z M148.82,89.292c32.859,0,59.528,26.668,59.528,59.528s-26.669,59.527-59.528,59.527
		s-59.527-26.668-59.527-59.527S115.961,89.292,148.82,89.292z M267.876,252.906c0,8.273-6.696,14.971-14.941,14.971H44.735
		c-8.274,0-14.971-6.697-14.971-14.971V133.938h31.223c-0.923,4.821-1.459,9.792-1.459,14.882c0,49.318,39.974,89.293,89.292,89.293
		c49.319,0,89.292-39.975,89.292-89.293c0-5.09-0.536-10.061-1.458-14.882h31.222V252.906z"/>
</g>
</svg>
