<?xml version="1.0" encoding="utf-8"?>
<!DOCTYPE svg PUBLIC "-//W3C//DTD SVG 1.1//EN" "http://www.w3.org/Graphics/SVG/1.1/DTD/svg11.dtd">
<svg version="1.1" id="HEADER_xA0_Imagen_1_" xmlns="http://www.w3.org/2000/svg" xmlns:xlink="http://www.w3.org/1999/xlink"
	 x="0px" y="0px" width="32.5px" height="32.5px" viewBox="0 0 32.5 32.5" enable-background="new 0 0 32.5 32.5"
	 xml:space="preserve">
<path fill="#FFFFFF" d="M-480.957,131.459c0,0,2.834,4.417,3.667,5.5s0,2.5,0,2.5s-1.75,0.334-2.5,1.667s-0.167,3.833-0.167,3.833
	l6.333,6.834c0,0,2.334,2.25,3.833,2s3.333-3.667,3.333-3.667s1.084-0.75,2.167,0s5.667,4.167,5.667,4.167l0.333,2.166
	c0,0,0.583,1.251-2.167,2.834s-8.333,0.166-8.333,0.166s-5.75-0.25-11.333-6.5s-6.75-11.667-7.167-13.5s-0.667-3.583-0.333-4.667
	s2.25-2.583,3.5-3.667S-480.957,131.459-480.957,131.459z"/>
<g>
	<g>
		<path fill ="#EE5F5F" d="M16.25,32.5C7.29,32.5,0,25.21,0,16.25S7.29,0,16.25,0S32.5,7.29,32.5,16.25S25.21,32.5,16.25,32.5z M16.25,1
			C7.841,1,1,7.841,1,16.25S7.841,31.5,16.25,31.5S31.5,24.659,31.5,16.25S24.659,1,16.25,1z"/>
	</g>
	<g>
		<rect fill ="#EE5F5F" x="8.082" y="9.75" width="16.334" height="2"/>
		<rect fill ="#EE5F5F" x="8.082" y="15.25" width="16.334" height="2"/>
		<rect fill ="#EE5F5F" x="8.082" y="20.75" width="16.334" height="2"/>
	</g>
</g>
</svg>
