<?xml version="1.0" encoding="utf-8"?>
<!DOCTYPE svg PUBLIC "-//W3C//DTD SVG 1.1//EN" "http://www.w3.org/Graphics/SVG/1.1/DTD/svg11.dtd">
<svg version="1.1" id="HEADER_xA0_Imagen_1_" xmlns="http://www.w3.org/2000/svg" xmlns:xlink="http://www.w3.org/1999/xlink"
	 x="0px" y="0px" width="32.5px" height="32.5px" viewBox="0 0 32.5 32.5" enable-background="new 0 0 32.5 32.5"
	 xml:space="preserve">
<path fill="#FFFFFF" d="M-542.01,134.532c0,0,2.834,4.417,3.667,5.5s0,2.5,0,2.5s-1.75,0.334-2.5,1.667s-0.167,3.833-0.167,3.833
	l6.333,6.834c0,0,2.334,2.25,3.833,2s3.333-3.667,3.333-3.667s1.084-0.75,2.167,0s5.667,4.167,5.667,4.167l0.333,2.166
	c0,0,0.583,1.251-2.167,2.834s-8.333,0.166-8.333,0.166s-5.75-0.25-11.333-6.5s-6.75-11.667-7.167-13.5s-0.667-3.583-0.333-4.667
	s2.25-2.583,3.5-3.667C-543.927,133.113-542.01,134.532-542.01,134.532z"/>
<path  fill ="#EE5F5F" d="M14.073,18.427c-2.804-2.807-5.486-6.054-4.202-7.338c1.839-1.839,3.439-2.972,0.182-7.024
	C6.795,0.011,4.626,3.124,2.844,4.904c-2.058,2.057-0.109,9.718,7.463,17.292c7.571,7.57,15.231,9.517,17.287,7.463
	c1.782-1.782,4.895-3.953,0.842-7.211s-5.186-1.656-7.024,0.181C20.127,23.913,16.878,21.23,14.073,18.427L14.073,18.427z"/>
</svg>
