<?xml version="1.0" encoding="utf-8"?>
<!-- Generator: Adobe Illustrator 15.0.0, SVG Export Plug-In . SVG Version: 6.00 Build 0)  -->
<!DOCTYPE svg PUBLIC "-//W3C//DTD SVG 1.1//EN" "http://www.w3.org/Graphics/SVG/1.1/DTD/svg11.dtd">
<svg version="1.1" id="Capa_1" xmlns="http://www.w3.org/2000/svg" xmlns:xlink="http://www.w3.org/1999/xlink" x="0px" y="0px"
	 width="168.464px" height="276.716px" viewBox="0 0 168.464 276.716" enable-background="new 0 0 168.464 276.716"
	 xml:space="preserve">
<path fill="#FFFFFF" d="M106.406,226.116c-4.584-2.738-7.709-6.338-9.376-10.922c-1.696-4.525-2.529-14.822-2.529-30.865v-70.988
	h64.885V69.945H94.501V0H55.6c-1.757,14.227-4.941,26.043-9.584,35.27c-4.614,9.257-10.775,17.145-18.425,23.722
	C19.941,65.629,10.686,70.689,0,74.231v39.11h30.24v97.089c0,12.621,1.31,22.264,3.929,28.961
	c2.619,6.637,7.322,12.977,14.108,18.842c6.786,5.922,14.971,10.477,24.585,13.66c9.613,3.186,20.656,4.822,33.157,4.822
	c10.982,0,21.222-1.16,30.687-3.363c9.465-2.291,20.031-6.16,31.729-11.756h0.029v-43.695
	c-13.691,9.139-27.442,13.723-41.313,13.723C119.413,231.624,112.478,229.778,106.406,226.116z"/>
<path fill="#FFFFFF" d="M765.691,65.659c0-8.899,5.655-15.596,10.744-15.596h42.95V3.006h-42.95
	c-35.537,0-61.433,30.33-61.433,67.653v26.014h-45.985v44.23h45.985v132.777h50.688V140.903h45.599l8.125-44.23h-53.724V65.659z"/>
<g>
	<path fill="#FFFFFF" d="M-516.457-10.477H-747.96c-18.186,0-33.068,14.882-33.068,33.068v231.504
		c0,18.186,14.883,33.068,33.068,33.068h231.504c18.187,0,33.068-14.883,33.068-33.068V22.591
		C-483.388,4.405-498.27-10.477-516.457-10.477z M-569.734,31.222c0-4.94,4.019-8.959,8.959-8.959h35.688
		c4.94,0,8.959,4.019,8.959,8.959v35.687c0,4.911-4.019,8.929-8.959,8.929h-35.688c-4.911,0-8.929-4.018-8.959-8.929V31.222z
		 M-632.208,78.815c32.859,0,59.528,26.668,59.528,59.528s-26.669,59.527-59.528,59.527s-59.527-26.668-59.527-59.527
		S-665.068,78.815-632.208,78.815z M-513.153,242.429c0,8.273-6.696,14.971-14.941,14.971h-208.199
		c-8.274,0-14.971-6.697-14.971-14.971V123.461h31.223c-0.923,4.821-1.459,9.792-1.459,14.882c0,49.318,39.974,89.293,89.292,89.293
		c49.319,0,89.292-39.975,89.292-89.293c0-5.09-0.536-10.061-1.458-14.882h31.222V242.429z"/>
</g>
</svg>
